<?xml version="1.0" encoding="us-ascii" standalone="no"?><svg xmlns="http://www.w3.org/2000/svg" xmlns:xlink="http://www.w3.org/1999/xlink" contentStyleType="text/css" height="911px" preserveAspectRatio="none" style="width:1198px;height:911px;background:#FFFFFF;" version="1.1" viewBox="0 0 1198 911" width="1198px" zoomAndPan="magnify"><defs/><g><!--class StreamingWebSite--><g id="elem_StreamingWebSite"><rect codeLine="2" fill="#F1F1F1" height="129.1406" id="StreamingWebSite" rx="2.5" ry="2.5" style="stroke:#181818;stroke-width:0.5;" width="149" x="493.64" y="7"/><ellipse cx="508.64" cy="28.3516" fill="#ADD1B2" rx="11" ry="11" style="stroke:#181818;stroke-width:1.0;"/><path d="M511.4056,24.2266 Q511.5619,24.0078 511.7494,23.8984 Q511.9369,23.7891 512.1556,23.7891 Q512.5306,23.7891 512.765,24.0547 Q512.9994,24.3047 512.9994,24.9141 L512.9994,26.3672 Q512.9994,26.9766 512.765,27.2422 Q512.5306,27.5078 512.1556,27.5078 Q511.8119,27.5078 511.6088,27.3047 Q511.4056,27.1172 511.2963,26.6016 Q511.2494,26.2422 511.0619,26.0547 Q510.7338,25.6797 510.1244,25.4609 Q509.515,25.2422 508.89,25.2422 Q508.1244,25.2422 507.4838,25.5703 Q506.8588,25.8984 506.3588,26.6484 Q505.8744,27.3984 505.8744,28.4297 L505.8744,29.5234 Q505.8744,30.7578 506.765,31.5859 Q507.6556,32.3984 509.2494,32.3984 Q510.1869,32.3984 510.8431,32.1484 Q511.2338,31.9922 511.6556,31.5547 Q511.9213,31.2891 512.0619,31.2109 Q512.2181,31.1328 512.4213,31.1328 Q512.7494,31.1328 512.9994,31.3984 Q513.265,31.6484 513.265,31.9922 Q513.265,32.3359 512.9213,32.7422 Q512.4213,33.3203 511.6244,33.6484 Q510.5463,34.1016 509.2494,34.1016 Q507.7338,34.1016 506.5306,33.4766 Q505.5463,32.9766 504.8588,31.9141 Q504.1713,30.8359 504.1713,29.5547 L504.1713,28.3984 Q504.1713,27.0703 504.7806,25.9297 Q505.4056,24.7734 506.4994,24.1641 Q507.5931,23.5391 508.8275,23.5391 Q509.5619,23.5391 510.2025,23.7109 Q510.8588,23.8672 511.4056,24.2266 Z " fill="#000000"/><text fill="#000000" font-family="sans-serif" font-size="12" font-style="italic" lengthAdjust="spacing" textLength="58" x="552.14" y="24.457">&#171;abstract&#187;</text><text fill="#000000" font-family="sans-serif" font-size="14" lengthAdjust="spacing" textLength="117" x="522.64" y="41.627">StreamingWebSite</text><line style="stroke:#181818;stroke-width:0.5;" x1="494.64" x2="641.64" y1="49.7031" y2="49.7031"/><polygon fill="none" points="504.64,59.0078,508.64,63.0078,504.64,67.0078,500.64,63.0078" style="stroke:#B38D22;stroke-width:1.0;"/><text fill="#000000" font-family="sans-serif" font-size="14" lengthAdjust="spacing" textLength="92" x="513.64" y="68.2363">device: Device</text><polygon fill="none" points="504.64,76.6172,508.64,80.6172,504.64,84.6172,500.64,80.6172" style="stroke:#B38D22;stroke-width:1.0;"/><text fill="#000000" font-family="sans-serif" font-size="14" lengthAdjust="spacing" textLength="111" x="513.64" y="85.8457">factory: UIFactory</text><line style="stroke:#181818;stroke-width:0.5;" x1="494.64" x2="641.64" y1="92.9219" y2="92.9219"/><ellipse cx="504.64" cy="107.2266" fill="#84BE84" rx="3" ry="3" style="stroke:#038048;stroke-width:1.0;"/><text fill="#000000" font-family="sans-serif" font-size="14" font-style="italic" lengthAdjust="spacing" textLength="88" x="513.64" y="111.4551">bodyRender()</text><ellipse cx="504.64" cy="124.8359" fill="#84BE84" rx="3" ry="3" style="stroke:#038048;stroke-width:1.0;"/><text fill="#000000" font-family="sans-serif" font-size="14" font-style="italic" lengthAdjust="spacing" textLength="102" x="513.64" y="129.0645">headerRender()</text></g><!--class NetflixWebSite--><g id="elem_NetflixWebSite"><rect codeLine="9" fill="#F1F1F1" height="83.2188" id="NetflixWebSite" rx="2.5" ry="2.5" style="stroke:#181818;stroke-width:0.5;" width="128" x="422.14" y="205"/><ellipse cx="439.84" cy="221" fill="#ADD1B2" rx="11" ry="11" style="stroke:#181818;stroke-width:1.0;"/><path d="M442.6056,216.875 Q442.7619,216.6563 442.9494,216.5469 Q443.1369,216.4375 443.3556,216.4375 Q443.7306,216.4375 443.965,216.7031 Q444.1994,216.9531 444.1994,217.5625 L444.1994,219.0156 Q444.1994,219.625 443.965,219.8906 Q443.7306,220.1563 443.3556,220.1563 Q443.0119,220.1563 442.8088,219.9531 Q442.6056,219.7656 442.4963,219.25 Q442.4494,218.8906 442.2619,218.7031 Q441.9338,218.3281 441.3244,218.1094 Q440.715,217.8906 440.09,217.8906 Q439.3244,217.8906 438.6838,218.2188 Q438.0588,218.5469 437.5588,219.2969 Q437.0744,220.0469 437.0744,221.0781 L437.0744,222.1719 Q437.0744,223.4063 437.965,224.2344 Q438.8556,225.0469 440.4494,225.0469 Q441.3869,225.0469 442.0431,224.7969 Q442.4338,224.6406 442.8556,224.2031 Q443.1213,223.9375 443.2619,223.8594 Q443.4181,223.7813 443.6213,223.7813 Q443.9494,223.7813 444.1994,224.0469 Q444.465,224.2969 444.465,224.6406 Q444.465,224.9844 444.1213,225.3906 Q443.6213,225.9688 442.8244,226.2969 Q441.7463,226.75 440.4494,226.75 Q438.9338,226.75 437.7306,226.125 Q436.7463,225.625 436.0588,224.5625 Q435.3713,223.4844 435.3713,222.2031 L435.3713,221.0469 Q435.3713,219.7188 435.9806,218.5781 Q436.6056,217.4219 437.6994,216.8125 Q438.7931,216.1875 440.0275,216.1875 Q440.7619,216.1875 441.4025,216.3594 Q442.0588,216.5156 442.6056,216.875 Z " fill="#000000"/><text fill="#000000" font-family="sans-serif" font-size="14" lengthAdjust="spacing" textLength="90" x="454.44" y="226.7285">NetflixWebSite</text><line style="stroke:#181818;stroke-width:0.5;" x1="423.14" x2="549.14" y1="237" y2="237"/><line style="stroke:#181818;stroke-width:0.5;" x1="423.14" x2="549.14" y1="245" y2="245"/><ellipse cx="433.14" cy="259.3047" fill="#84BE84" rx="3" ry="3" style="stroke:#038048;stroke-width:1.0;"/><text fill="#000000" font-family="sans-serif" font-size="14" lengthAdjust="spacing" textLength="88" x="442.14" y="263.5332">bodyRender()</text><ellipse cx="433.14" cy="276.9141" fill="#84BE84" rx="3" ry="3" style="stroke:#038048;stroke-width:1.0;"/><text fill="#000000" font-family="sans-serif" font-size="14" lengthAdjust="spacing" textLength="102" x="442.14" y="281.1426">headerRender()</text></g><!--class DisneyWebSite--><g id="elem_DisneyWebSite"><rect codeLine="14" fill="#F1F1F1" height="83.2188" id="DisneyWebSite" rx="2.5" ry="2.5" style="stroke:#181818;stroke-width:0.5;" width="128" x="585.14" y="205"/><ellipse cx="600.14" cy="221" fill="#ADD1B2" rx="11" ry="11" style="stroke:#181818;stroke-width:1.0;"/><path d="M602.9056,216.875 Q603.0619,216.6563 603.2494,216.5469 Q603.4369,216.4375 603.6556,216.4375 Q604.0306,216.4375 604.265,216.7031 Q604.4994,216.9531 604.4994,217.5625 L604.4994,219.0156 Q604.4994,219.625 604.265,219.8906 Q604.0306,220.1563 603.6556,220.1563 Q603.3119,220.1563 603.1088,219.9531 Q602.9056,219.7656 602.7963,219.25 Q602.7494,218.8906 602.5619,218.7031 Q602.2338,218.3281 601.6244,218.1094 Q601.015,217.8906 600.39,217.8906 Q599.6244,217.8906 598.9838,218.2188 Q598.3588,218.5469 597.8588,219.2969 Q597.3744,220.0469 597.3744,221.0781 L597.3744,222.1719 Q597.3744,223.4063 598.265,224.2344 Q599.1556,225.0469 600.7494,225.0469 Q601.6869,225.0469 602.3431,224.7969 Q602.7338,224.6406 603.1556,224.2031 Q603.4213,223.9375 603.5619,223.8594 Q603.7181,223.7813 603.9213,223.7813 Q604.2494,223.7813 604.4994,224.0469 Q604.765,224.2969 604.765,224.6406 Q604.765,224.9844 604.4213,225.3906 Q603.9213,225.9688 603.1244,226.2969 Q602.0463,226.75 600.7494,226.75 Q599.2338,226.75 598.0306,226.125 Q597.0463,225.625 596.3588,224.5625 Q595.6713,223.4844 595.6713,222.2031 L595.6713,221.0469 Q595.6713,219.7188 596.2806,218.5781 Q596.9056,217.4219 597.9994,216.8125 Q599.0931,216.1875 600.3275,216.1875 Q601.0619,216.1875 601.7025,216.3594 Q602.3588,216.5156 602.9056,216.875 Z " fill="#000000"/><text fill="#000000" font-family="sans-serif" font-size="14" lengthAdjust="spacing" textLength="96" x="614.14" y="226.7285">DisneyWebSite</text><line style="stroke:#181818;stroke-width:0.5;" x1="586.14" x2="712.14" y1="237" y2="237"/><line style="stroke:#181818;stroke-width:0.5;" x1="586.14" x2="712.14" y1="245" y2="245"/><ellipse cx="596.14" cy="259.3047" fill="#84BE84" rx="3" ry="3" style="stroke:#038048;stroke-width:1.0;"/><text fill="#000000" font-family="sans-serif" font-size="14" lengthAdjust="spacing" textLength="88" x="605.14" y="263.5332">bodyRender()</text><ellipse cx="596.14" cy="276.9141" fill="#84BE84" rx="3" ry="3" style="stroke:#038048;stroke-width:1.0;"/><text fill="#000000" font-family="sans-serif" font-size="14" lengthAdjust="spacing" textLength="102" x="605.14" y="281.1426">headerRender()</text></g><!--class Device--><g id="elem_Device"><rect codeLine="19" fill="#F1F1F1" height="100.8281" id="Device" rx="2.5" ry="2.5" style="stroke:#181818;stroke-width:0.5;" width="204" x="748.14" y="21"/><ellipse cx="824.89" cy="37" fill="#B4A7E5" rx="11" ry="11" style="stroke:#181818;stroke-width:1.0;"/><path d="M825.8431,33.6406 L825.8431,40.2969 L827.5619,40.2969 Q828.1713,40.2969 828.4369,40.5313 Q828.7025,40.7656 828.7025,41.1563 Q828.7025,41.5313 828.4369,41.7656 Q828.1713,42 827.5619,42 L822.4213,42 Q821.8119,42 821.5463,41.7656 Q821.2806,41.5313 821.2806,41.1406 Q821.2806,40.7656 821.5463,40.5313 Q821.8119,40.2969 822.4213,40.2969 L824.14,40.2969 L824.14,33.6406 L822.4213,33.6406 Q821.8119,33.6406 821.5463,33.4063 Q821.2806,33.1719 821.2806,32.7813 Q821.2806,32.4063 821.5463,32.1719 Q821.8119,31.9375 822.4213,31.9375 L827.5619,31.9375 Q828.1713,31.9375 828.4369,32.1719 Q828.7025,32.4063 828.7025,32.7813 Q828.7025,33.1719 828.4369,33.4063 Q828.1713,33.6406 827.5619,33.6406 L825.8431,33.6406 Z " fill="#000000"/><text fill="#000000" font-family="sans-serif" font-size="14" font-style="italic" lengthAdjust="spacing" textLength="42" x="845.39" y="42.7285">Device</text><line style="stroke:#181818;stroke-width:0.5;" x1="749.14" x2="951.14" y1="53" y2="53"/><line style="stroke:#181818;stroke-width:0.5;" x1="749.14" x2="951.14" y1="61" y2="61"/><ellipse cx="759.14" cy="75.3047" fill="#84BE84" rx="3" ry="3" style="stroke:#038048;stroke-width:1.0;"/><text fill="#000000" font-family="sans-serif" font-size="14" lengthAdjust="spacing" textLength="170" x="768.14" y="79.5332">getScreeenWidth(): double</text><ellipse cx="759.14" cy="92.9141" fill="#84BE84" rx="3" ry="3" style="stroke:#038048;stroke-width:1.0;"/><text fill="#000000" font-family="sans-serif" font-size="14" lengthAdjust="spacing" textLength="178" x="768.14" y="97.1426">getScreeenHeigth() : double</text><ellipse cx="759.14" cy="110.5234" fill="#84BE84" rx="3" ry="3" style="stroke:#038048;stroke-width:1.0;"/><text fill="#000000" font-family="sans-serif" font-size="14" lengthAdjust="spacing" textLength="73" x="768.14" y="114.752">play(String)</text></g><!--class Desktop--><g id="elem_Desktop"><rect codeLine="25" fill="#F1F1F1" height="100.8281" id="Desktop" rx="2.5" ry="2.5" style="stroke:#181818;stroke-width:0.5;" width="204" x="748.14" y="196"/><ellipse cx="819.89" cy="212" fill="#ADD1B2" rx="11" ry="11" style="stroke:#181818;stroke-width:1.0;"/><path d="M822.6556,207.875 Q822.8119,207.6563 822.9994,207.5469 Q823.1869,207.4375 823.4056,207.4375 Q823.7806,207.4375 824.015,207.7031 Q824.2494,207.9531 824.2494,208.5625 L824.2494,210.0156 Q824.2494,210.625 824.015,210.8906 Q823.7806,211.1563 823.4056,211.1563 Q823.0619,211.1563 822.8588,210.9531 Q822.6556,210.7656 822.5463,210.25 Q822.4994,209.8906 822.3119,209.7031 Q821.9838,209.3281 821.3744,209.1094 Q820.765,208.8906 820.14,208.8906 Q819.3744,208.8906 818.7338,209.2188 Q818.1088,209.5469 817.6088,210.2969 Q817.1244,211.0469 817.1244,212.0781 L817.1244,213.1719 Q817.1244,214.4063 818.015,215.2344 Q818.9056,216.0469 820.4994,216.0469 Q821.4369,216.0469 822.0931,215.7969 Q822.4838,215.6406 822.9056,215.2031 Q823.1713,214.9375 823.3119,214.8594 Q823.4681,214.7813 823.6713,214.7813 Q823.9994,214.7813 824.2494,215.0469 Q824.515,215.2969 824.515,215.6406 Q824.515,215.9844 824.1713,216.3906 Q823.6713,216.9688 822.8744,217.2969 Q821.7963,217.75 820.4994,217.75 Q818.9838,217.75 817.7806,217.125 Q816.7963,216.625 816.1088,215.5625 Q815.4213,214.4844 815.4213,213.2031 L815.4213,212.0469 Q815.4213,210.7188 816.0306,209.5781 Q816.6556,208.4219 817.7494,207.8125 Q818.8431,207.1875 820.0775,207.1875 Q820.8119,207.1875 821.4525,207.3594 Q822.1088,207.5156 822.6556,207.875 Z " fill="#000000"/><text fill="#000000" font-family="sans-serif" font-size="14" lengthAdjust="spacing" textLength="52" x="840.39" y="217.7285">Desktop</text><line style="stroke:#181818;stroke-width:0.5;" x1="749.14" x2="951.14" y1="228" y2="228"/><line style="stroke:#181818;stroke-width:0.5;" x1="749.14" x2="951.14" y1="236" y2="236"/><ellipse cx="759.14" cy="250.3047" fill="#84BE84" rx="3" ry="3" style="stroke:#038048;stroke-width:1.0;"/><text fill="#000000" font-family="sans-serif" font-size="14" lengthAdjust="spacing" textLength="170" x="768.14" y="254.5332">getScreeenWidth(): double</text><ellipse cx="759.14" cy="267.9141" fill="#84BE84" rx="3" ry="3" style="stroke:#038048;stroke-width:1.0;"/><text fill="#000000" font-family="sans-serif" font-size="14" lengthAdjust="spacing" textLength="178" x="768.14" y="272.1426">getScreeenHeigth() : double</text><ellipse cx="759.14" cy="285.5234" fill="#84BE84" rx="3" ry="3" style="stroke:#038048;stroke-width:1.0;"/><text fill="#000000" font-family="sans-serif" font-size="14" lengthAdjust="spacing" textLength="73" x="768.14" y="289.752">play(String)</text></g><!--class Mobile--><g id="elem_Mobile"><rect codeLine="31" fill="#F1F1F1" height="100.8281" id="Mobile" rx="2.5" ry="2.5" style="stroke:#181818;stroke-width:0.5;" width="204" x="987.14" y="196"/><ellipse cx="1064.39" cy="212" fill="#ADD1B2" rx="11" ry="11" style="stroke:#181818;stroke-width:1.0;"/><path d="M1067.1556,207.875 Q1067.3119,207.6563 1067.4994,207.5469 Q1067.6869,207.4375 1067.9056,207.4375 Q1068.2806,207.4375 1068.515,207.7031 Q1068.7494,207.9531 1068.7494,208.5625 L1068.7494,210.0156 Q1068.7494,210.625 1068.515,210.8906 Q1068.2806,211.1563 1067.9056,211.1563 Q1067.5619,211.1563 1067.3587,210.9531 Q1067.1556,210.7656 1067.0462,210.25 Q1066.9994,209.8906 1066.8119,209.7031 Q1066.4837,209.3281 1065.8744,209.1094 Q1065.265,208.8906 1064.64,208.8906 Q1063.8744,208.8906 1063.2337,209.2188 Q1062.6087,209.5469 1062.1087,210.2969 Q1061.6244,211.0469 1061.6244,212.0781 L1061.6244,213.1719 Q1061.6244,214.4063 1062.515,215.2344 Q1063.4056,216.0469 1064.9994,216.0469 Q1065.9369,216.0469 1066.5931,215.7969 Q1066.9837,215.6406 1067.4056,215.2031 Q1067.6712,214.9375 1067.8119,214.8594 Q1067.9681,214.7813 1068.1712,214.7813 Q1068.4994,214.7813 1068.7494,215.0469 Q1069.015,215.2969 1069.015,215.6406 Q1069.015,215.9844 1068.6712,216.3906 Q1068.1712,216.9688 1067.3744,217.2969 Q1066.2962,217.75 1064.9994,217.75 Q1063.4837,217.75 1062.2806,217.125 Q1061.2962,216.625 1060.6087,215.5625 Q1059.9212,214.4844 1059.9212,213.2031 L1059.9212,212.0469 Q1059.9212,210.7188 1060.5306,209.5781 Q1061.1556,208.4219 1062.2494,207.8125 Q1063.3431,207.1875 1064.5775,207.1875 Q1065.3119,207.1875 1065.9525,207.3594 Q1066.6087,207.5156 1067.1556,207.875 Z " fill="#000000"/><text fill="#000000" font-family="sans-serif" font-size="14" lengthAdjust="spacing" textLength="41" x="1084.89" y="217.7285">Mobile</text><line style="stroke:#181818;stroke-width:0.5;" x1="988.14" x2="1190.14" y1="228" y2="228"/><line style="stroke:#181818;stroke-width:0.5;" x1="988.14" x2="1190.14" y1="236" y2="236"/><ellipse cx="998.14" cy="250.3047" fill="#84BE84" rx="3" ry="3" style="stroke:#038048;stroke-width:1.0;"/><text fill="#000000" font-family="sans-serif" font-size="14" lengthAdjust="spacing" textLength="170" x="1007.14" y="254.5332">getScreeenWidth(): double</text><ellipse cx="998.14" cy="267.9141" fill="#84BE84" rx="3" ry="3" style="stroke:#038048;stroke-width:1.0;"/><text fill="#000000" font-family="sans-serif" font-size="14" lengthAdjust="spacing" textLength="178" x="1007.14" y="272.1426">getScreeenHeigth() : double</text><ellipse cx="998.14" cy="285.5234" fill="#84BE84" rx="3" ry="3" style="stroke:#038048;stroke-width:1.0;"/><text fill="#000000" font-family="sans-serif" font-size="14" lengthAdjust="spacing" textLength="73" x="1007.14" y="289.752">play(String)</text></g><!--class UIFactory--><g id="elem_UIFactory"><rect codeLine="38" fill="#F1F1F1" height="100.8281" id="UIFactory" rx="2.5" ry="2.5" style="stroke:#181818;stroke-width:0.5;" width="246" x="141.14" y="21"/><ellipse cx="228.89" cy="37" fill="#B4A7E5" rx="11" ry="11" style="stroke:#181818;stroke-width:1.0;"/><path d="M229.8431,33.6406 L229.8431,40.2969 L231.5619,40.2969 Q232.1713,40.2969 232.4369,40.5313 Q232.7025,40.7656 232.7025,41.1563 Q232.7025,41.5313 232.4369,41.7656 Q232.1713,42 231.5619,42 L226.4213,42 Q225.8119,42 225.5463,41.7656 Q225.2806,41.5313 225.2806,41.1406 Q225.2806,40.7656 225.5463,40.5313 Q225.8119,40.2969 226.4213,40.2969 L228.14,40.2969 L228.14,33.6406 L226.4213,33.6406 Q225.8119,33.6406 225.5463,33.4063 Q225.2806,33.1719 225.2806,32.7813 Q225.2806,32.4063 225.5463,32.1719 Q225.8119,31.9375 226.4213,31.9375 L231.5619,31.9375 Q232.1713,31.9375 232.4369,32.1719 Q232.7025,32.4063 232.7025,32.7813 Q232.7025,33.1719 232.4369,33.4063 Q232.1713,33.6406 231.5619,33.6406 L229.8431,33.6406 Z " fill="#000000"/><text fill="#000000" font-family="sans-serif" font-size="14" font-style="italic" lengthAdjust="spacing" textLength="62" x="249.39" y="42.7285">UIFactory</text><line style="stroke:#181818;stroke-width:0.5;" x1="142.14" x2="386.14" y1="53" y2="53"/><line style="stroke:#181818;stroke-width:0.5;" x1="142.14" x2="386.14" y1="61" y2="61"/><ellipse cx="152.14" cy="75.3047" fill="#84BE84" rx="3" ry="3" style="stroke:#038048;stroke-width:1.0;"/><text fill="#000000" font-family="sans-serif" font-size="14" lengthAdjust="spacing" textLength="192" x="161.14" y="79.5332">createMainMenu() : MainMenu</text><ellipse cx="152.14" cy="92.9141" fill="#84BE84" rx="3" ry="3" style="stroke:#038048;stroke-width:1.0;"/><text fill="#000000" font-family="sans-serif" font-size="14" lengthAdjust="spacing" textLength="142" x="161.14" y="97.1426">createPlayer() : Player</text><ellipse cx="152.14" cy="110.5234" fill="#84BE84" rx="3" ry="3" style="stroke:#038048;stroke-width:1.0;"/><text fill="#000000" font-family="sans-serif" font-size="14" lengthAdjust="spacing" textLength="220" x="161.14" y="114.752">createContentCard(): ContentCard</text></g><!--class UIDisneyFactory--><g id="elem_UIDisneyFactory"><rect codeLine="45" fill="#F1F1F1" height="118.4375" id="UIDisneyFactory" rx="2.5" ry="2.5" style="stroke:#181818;stroke-width:0.5;" width="246" x="119.14" y="786"/><ellipse cx="186.39" cy="802" fill="#ADD1B2" rx="11" ry="11" style="stroke:#181818;stroke-width:1.0;"/><path d="M189.1556,797.875 Q189.3119,797.6563 189.4994,797.5469 Q189.6869,797.4375 189.9056,797.4375 Q190.2806,797.4375 190.515,797.7031 Q190.7494,797.9531 190.7494,798.5625 L190.7494,800.0156 Q190.7494,800.625 190.515,800.8906 Q190.2806,801.1563 189.9056,801.1563 Q189.5619,801.1563 189.3588,800.9531 Q189.1556,800.7656 189.0463,800.25 Q188.9994,799.8906 188.8119,799.7031 Q188.4838,799.3281 187.8744,799.1094 Q187.265,798.8906 186.64,798.8906 Q185.8744,798.8906 185.2338,799.2188 Q184.6088,799.5469 184.1088,800.2969 Q183.6244,801.0469 183.6244,802.0781 L183.6244,803.1719 Q183.6244,804.4063 184.515,805.2344 Q185.4056,806.0469 186.9994,806.0469 Q187.9369,806.0469 188.5931,805.7969 Q188.9838,805.6406 189.4056,805.2031 Q189.6713,804.9375 189.8119,804.8594 Q189.9681,804.7813 190.1713,804.7813 Q190.4994,804.7813 190.7494,805.0469 Q191.015,805.2969 191.015,805.6406 Q191.015,805.9844 190.6713,806.3906 Q190.1713,806.9688 189.3744,807.2969 Q188.2963,807.75 186.9994,807.75 Q185.4838,807.75 184.2806,807.125 Q183.2963,806.625 182.6088,805.5625 Q181.9213,804.4844 181.9213,803.2031 L181.9213,802.0469 Q181.9213,800.7188 182.5306,799.5781 Q183.1556,798.4219 184.2494,797.8125 Q185.3431,797.1875 186.5775,797.1875 Q187.3119,797.1875 187.9525,797.3594 Q188.6088,797.5156 189.1556,797.875 Z " fill="#000000"/><text fill="#000000" font-family="sans-serif" font-size="14" lengthAdjust="spacing" textLength="103" x="206.89" y="807.7285">UIDisneyFactory</text><line style="stroke:#181818;stroke-width:0.5;" x1="120.14" x2="364.14" y1="818" y2="818"/><line style="stroke:#181818;stroke-width:0.5;" x1="120.14" x2="364.14" y1="826" y2="826"/><ellipse cx="130.14" cy="840.3047" fill="#84BE84" rx="3" ry="3" style="stroke:#038048;stroke-width:1.0;"/><text fill="#000000" font-family="sans-serif" font-size="14" lengthAdjust="spacing" textLength="192" x="139.14" y="844.5332">createMainMenu() : MainMenu</text><ellipse cx="130.14" cy="857.9141" fill="#84BE84" rx="3" ry="3" style="stroke:#038048;stroke-width:1.0;"/><text fill="#000000" font-family="sans-serif" font-size="14" lengthAdjust="spacing" textLength="142" x="139.14" y="862.1426">createPlayer() : Player</text><ellipse cx="130.14" cy="875.5234" fill="#84BE84" rx="3" ry="3" style="stroke:#038048;stroke-width:1.0;"/><text fill="#000000" font-family="sans-serif" font-size="14" lengthAdjust="spacing" textLength="220" x="139.14" y="879.752">createContentCard(): ContentCard</text><rect fill="#F24D5C" height="6" style="stroke:#C82930;stroke-width:1.0;" width="6" x="127.14" y="890.1328"/><text fill="#000000" font-family="sans-serif" font-size="14" lengthAdjust="spacing" textLength="82" x="139.14" y="897.3613">createBody()</text></g><!--class UINetflixFactory--><g id="elem_UINetflixFactory"><rect codeLine="52" fill="#F1F1F1" height="100.8281" id="UINetflixFactory" rx="2.5" ry="2.5" style="stroke:#181818;stroke-width:0.5;" width="246" x="141.14" y="196"/><ellipse cx="211.39" cy="212" fill="#ADD1B2" rx="11" ry="11" style="stroke:#181818;stroke-width:1.0;"/><path d="M214.1556,207.875 Q214.3119,207.6563 214.4994,207.5469 Q214.6869,207.4375 214.9056,207.4375 Q215.2806,207.4375 215.515,207.7031 Q215.7494,207.9531 215.7494,208.5625 L215.7494,210.0156 Q215.7494,210.625 215.515,210.8906 Q215.2806,211.1563 214.9056,211.1563 Q214.5619,211.1563 214.3588,210.9531 Q214.1556,210.7656 214.0463,210.25 Q213.9994,209.8906 213.8119,209.7031 Q213.4838,209.3281 212.8744,209.1094 Q212.265,208.8906 211.64,208.8906 Q210.8744,208.8906 210.2338,209.2188 Q209.6088,209.5469 209.1088,210.2969 Q208.6244,211.0469 208.6244,212.0781 L208.6244,213.1719 Q208.6244,214.4063 209.515,215.2344 Q210.4056,216.0469 211.9994,216.0469 Q212.9369,216.0469 213.5931,215.7969 Q213.9838,215.6406 214.4056,215.2031 Q214.6713,214.9375 214.8119,214.8594 Q214.9681,214.7813 215.1713,214.7813 Q215.4994,214.7813 215.7494,215.0469 Q216.015,215.2969 216.015,215.6406 Q216.015,215.9844 215.6713,216.3906 Q215.1713,216.9688 214.3744,217.2969 Q213.2963,217.75 211.9994,217.75 Q210.4838,217.75 209.2806,217.125 Q208.2963,216.625 207.6088,215.5625 Q206.9213,214.4844 206.9213,213.2031 L206.9213,212.0469 Q206.9213,210.7188 207.5306,209.5781 Q208.1556,208.4219 209.2494,207.8125 Q210.3431,207.1875 211.5775,207.1875 Q212.3119,207.1875 212.9525,207.3594 Q213.6088,207.5156 214.1556,207.875 Z " fill="#000000"/><text fill="#000000" font-family="sans-serif" font-size="14" lengthAdjust="spacing" textLength="97" x="231.89" y="217.7285">UINetflixFactory</text><line style="stroke:#181818;stroke-width:0.5;" x1="142.14" x2="386.14" y1="228" y2="228"/><line style="stroke:#181818;stroke-width:0.5;" x1="142.14" x2="386.14" y1="236" y2="236"/><ellipse cx="152.14" cy="250.3047" fill="#84BE84" rx="3" ry="3" style="stroke:#038048;stroke-width:1.0;"/><text fill="#000000" font-family="sans-serif" font-size="14" lengthAdjust="spacing" textLength="192" x="161.14" y="254.5332">createMainMenu() : MainMenu</text><ellipse cx="152.14" cy="267.9141" fill="#84BE84" rx="3" ry="3" style="stroke:#038048;stroke-width:1.0;"/><text fill="#000000" font-family="sans-serif" font-size="14" lengthAdjust="spacing" textLength="142" x="161.14" y="272.1426">createPlayer() : Player</text><ellipse cx="152.14" cy="285.5234" fill="#84BE84" rx="3" ry="3" style="stroke:#038048;stroke-width:1.0;"/><text fill="#000000" font-family="sans-serif" font-size="14" lengthAdjust="spacing" textLength="220" x="161.14" y="289.752">createContentCard(): ContentCard</text></g><!--class ContentCard--><g id="elem_ContentCard"><rect codeLine="58" fill="#F1F1F1" height="83.2188" id="ContentCard" rx="2.5" ry="2.5" style="stroke:#181818;stroke-width:0.5;" width="131" x="456.64" y="500"/><ellipse cx="479.74" cy="516" fill="#B4A7E5" rx="11" ry="11" style="stroke:#181818;stroke-width:1.0;"/><path d="M480.6931,512.6406 L480.6931,519.2969 L482.4119,519.2969 Q483.0213,519.2969 483.2869,519.5313 Q483.5525,519.7656 483.5525,520.1563 Q483.5525,520.5313 483.2869,520.7656 Q483.0213,521 482.4119,521 L477.2713,521 Q476.6619,521 476.3963,520.7656 Q476.1306,520.5313 476.1306,520.1406 Q476.1306,519.7656 476.3963,519.5313 Q476.6619,519.2969 477.2713,519.2969 L478.99,519.2969 L478.99,512.6406 L477.2713,512.6406 Q476.6619,512.6406 476.3963,512.4063 Q476.1306,512.1719 476.1306,511.7813 Q476.1306,511.4063 476.3963,511.1719 Q476.6619,510.9375 477.2713,510.9375 L482.4119,510.9375 Q483.0213,510.9375 483.2869,511.1719 Q483.5525,511.4063 483.5525,511.7813 Q483.5525,512.1719 483.2869,512.4063 Q483.0213,512.6406 482.4119,512.6406 L480.6931,512.6406 Z " fill="#000000"/><text fill="#000000" font-family="sans-serif" font-size="14" font-style="italic" lengthAdjust="spacing" textLength="81" x="495.54" y="521.7285">ContentCard</text><line style="stroke:#181818;stroke-width:0.5;" x1="457.64" x2="586.64" y1="532" y2="532"/><line style="stroke:#181818;stroke-width:0.5;" x1="457.64" x2="586.64" y1="540" y2="540"/><ellipse cx="467.64" cy="554.3047" fill="#84BE84" rx="3" ry="3" style="stroke:#038048;stroke-width:1.0;"/><text fill="#000000" font-family="sans-serif" font-size="14" lengthAdjust="spacing" textLength="89" x="476.64" y="558.5332">selectOption()</text><ellipse cx="467.64" cy="571.9141" fill="#84BE84" rx="3" ry="3" style="stroke:#038048;stroke-width:1.0;"/><text fill="#000000" font-family="sans-serif" font-size="14" lengthAdjust="spacing" textLength="105" x="476.64" y="576.1426">generateCards()</text></g><!--class MainMenu--><g id="elem_MainMenu"><rect codeLine="63" fill="#F1F1F1" height="83.2188" id="MainMenu" rx="2.5" ry="2.5" style="stroke:#181818;stroke-width:0.5;" width="157" x="70.64" y="500"/><ellipse cx="111.74" cy="516" fill="#B4A7E5" rx="11" ry="11" style="stroke:#181818;stroke-width:1.0;"/><path d="M112.6931,512.6406 L112.6931,519.2969 L114.4119,519.2969 Q115.0213,519.2969 115.2869,519.5313 Q115.5525,519.7656 115.5525,520.1563 Q115.5525,520.5313 115.2869,520.7656 Q115.0213,521 114.4119,521 L109.2713,521 Q108.6619,521 108.3963,520.7656 Q108.1306,520.5313 108.1306,520.1406 Q108.1306,519.7656 108.3963,519.5313 Q108.6619,519.2969 109.2713,519.2969 L110.99,519.2969 L110.99,512.6406 L109.2713,512.6406 Q108.6619,512.6406 108.3963,512.4063 Q108.1306,512.1719 108.1306,511.7813 Q108.1306,511.4063 108.3963,511.1719 Q108.6619,510.9375 109.2713,510.9375 L114.4119,510.9375 Q115.0213,510.9375 115.2869,511.1719 Q115.5525,511.4063 115.5525,511.7813 Q115.5525,512.1719 115.2869,512.4063 Q115.0213,512.6406 114.4119,512.6406 L112.6931,512.6406 Z " fill="#000000"/><text fill="#000000" font-family="sans-serif" font-size="14" font-style="italic" lengthAdjust="spacing" textLength="67" x="131.54" y="521.7285">MainMenu</text><line style="stroke:#181818;stroke-width:0.5;" x1="71.64" x2="226.64" y1="532" y2="532"/><line style="stroke:#181818;stroke-width:0.5;" x1="71.64" x2="226.64" y1="540" y2="540"/><ellipse cx="81.64" cy="554.3047" fill="#84BE84" rx="3" ry="3" style="stroke:#038048;stroke-width:1.0;"/><text fill="#000000" font-family="sans-serif" font-size="14" lengthAdjust="spacing" textLength="131" x="90.64" y="558.5332">generateOptionList()</text><ellipse cx="81.64" cy="571.9141" fill="#84BE84" rx="3" ry="3" style="stroke:#038048;stroke-width:1.0;"/><text fill="#000000" font-family="sans-serif" font-size="14" lengthAdjust="spacing" textLength="89" x="90.64" y="576.1426">selectOption()</text></g><!--class Player--><g id="elem_Player"><rect codeLine="68" fill="#F1F1F1" height="83.2188" id="Player" rx="2.5" ry="2.5" style="stroke:#181818;stroke-width:0.5;" width="147" x="262.64" y="500"/><ellipse cx="311.89" cy="516" fill="#B4A7E5" rx="11" ry="11" style="stroke:#181818;stroke-width:1.0;"/><path d="M312.8431,512.6406 L312.8431,519.2969 L314.5619,519.2969 Q315.1713,519.2969 315.4369,519.5313 Q315.7025,519.7656 315.7025,520.1563 Q315.7025,520.5313 315.4369,520.7656 Q315.1713,521 314.5619,521 L309.4213,521 Q308.8119,521 308.5463,520.7656 Q308.2806,520.5313 308.2806,520.1406 Q308.2806,519.7656 308.5463,519.5313 Q308.8119,519.2969 309.4213,519.2969 L311.14,519.2969 L311.14,512.6406 L309.4213,512.6406 Q308.8119,512.6406 308.5463,512.4063 Q308.2806,512.1719 308.2806,511.7813 Q308.2806,511.4063 308.5463,511.1719 Q308.8119,510.9375 309.4213,510.9375 L314.5619,510.9375 Q315.1713,510.9375 315.4369,511.1719 Q315.7025,511.4063 315.7025,511.7813 Q315.7025,512.1719 315.4369,512.4063 Q315.1713,512.6406 314.5619,512.6406 L312.8431,512.6406 Z " fill="#000000"/><text fill="#000000" font-family="sans-serif" font-size="14" font-style="italic" lengthAdjust="spacing" textLength="40" x="332.39" y="521.7285">Player</text><line style="stroke:#181818;stroke-width:0.5;" x1="263.64" x2="408.64" y1="532" y2="532"/><line style="stroke:#181818;stroke-width:0.5;" x1="263.64" x2="408.64" y1="540" y2="540"/><ellipse cx="273.64" cy="554.3047" fill="#84BE84" rx="3" ry="3" style="stroke:#038048;stroke-width:1.0;"/><text fill="#000000" font-family="sans-serif" font-size="14" lengthAdjust="spacing" textLength="107" x="282.64" y="558.5332">generatePlayer()</text><ellipse cx="273.64" cy="571.9141" fill="#84BE84" rx="3" ry="3" style="stroke:#038048;stroke-width:1.0;"/><text fill="#000000" font-family="sans-serif" font-size="14" lengthAdjust="spacing" textLength="121" x="282.64" y="576.1426">generateSubtitles()</text></g><!--class DisneyContentCard--><g id="elem_DisneyContentCard"><rect codeLine="73" fill="#F1F1F1" height="83.2188" id="DisneyContentCard" rx="2.5" ry="2.5" style="stroke:#181818;stroke-width:0.5;" width="156" x="445.14" y="643"/><ellipse cx="460.14" cy="659" fill="#ADD1B2" rx="11" ry="11" style="stroke:#181818;stroke-width:1.0;"/><path d="M462.9056,654.875 Q463.0619,654.6563 463.2494,654.5469 Q463.4369,654.4375 463.6556,654.4375 Q464.0306,654.4375 464.265,654.7031 Q464.4994,654.9531 464.4994,655.5625 L464.4994,657.0156 Q464.4994,657.625 464.265,657.8906 Q464.0306,658.1563 463.6556,658.1563 Q463.3119,658.1563 463.1088,657.9531 Q462.9056,657.7656 462.7963,657.25 Q462.7494,656.8906 462.5619,656.7031 Q462.2338,656.3281 461.6244,656.1094 Q461.015,655.8906 460.39,655.8906 Q459.6244,655.8906 458.9838,656.2188 Q458.3588,656.5469 457.8588,657.2969 Q457.3744,658.0469 457.3744,659.0781 L457.3744,660.1719 Q457.3744,661.4063 458.265,662.2344 Q459.1556,663.0469 460.7494,663.0469 Q461.6869,663.0469 462.3431,662.7969 Q462.7338,662.6406 463.1556,662.2031 Q463.4213,661.9375 463.5619,661.8594 Q463.7181,661.7813 463.9213,661.7813 Q464.2494,661.7813 464.4994,662.0469 Q464.765,662.2969 464.765,662.6406 Q464.765,662.9844 464.4213,663.3906 Q463.9213,663.9688 463.1244,664.2969 Q462.0463,664.75 460.7494,664.75 Q459.2338,664.75 458.0306,664.125 Q457.0463,663.625 456.3588,662.5625 Q455.6713,661.4844 455.6713,660.2031 L455.6713,659.0469 Q455.6713,657.7188 456.2806,656.5781 Q456.9056,655.4219 457.9994,654.8125 Q459.0931,654.1875 460.3275,654.1875 Q461.0619,654.1875 461.7025,654.3594 Q462.3588,654.5156 462.9056,654.875 Z " fill="#000000"/><text fill="#000000" font-family="sans-serif" font-size="14" lengthAdjust="spacing" textLength="124" x="474.14" y="664.7285">DisneyContentCard</text><line style="stroke:#181818;stroke-width:0.5;" x1="446.14" x2="600.14" y1="675" y2="675"/><line style="stroke:#181818;stroke-width:0.5;" x1="446.14" x2="600.14" y1="683" y2="683"/><ellipse cx="456.14" cy="697.3047" fill="#84BE84" rx="3" ry="3" style="stroke:#038048;stroke-width:1.0;"/><text fill="#000000" font-family="sans-serif" font-size="14" lengthAdjust="spacing" textLength="89" x="465.14" y="701.5332">selectOption()</text><ellipse cx="456.14" cy="714.9141" fill="#84BE84" rx="3" ry="3" style="stroke:#038048;stroke-width:1.0;"/><text fill="#000000" font-family="sans-serif" font-size="14" lengthAdjust="spacing" textLength="105" x="465.14" y="719.1426">generateCards()</text></g><!--class DisneyMainMenu--><g id="elem_DisneyMainMenu"><rect codeLine="78" fill="#F1F1F1" height="83.2188" id="DisneyMainMenu" rx="2.5" ry="2.5" style="stroke:#181818;stroke-width:0.5;" width="157" x="70.64" y="643"/><ellipse cx="93.29" cy="659" fill="#ADD1B2" rx="11" ry="11" style="stroke:#181818;stroke-width:1.0;"/><path d="M96.0556,654.875 Q96.2119,654.6563 96.3994,654.5469 Q96.5869,654.4375 96.8056,654.4375 Q97.1806,654.4375 97.415,654.7031 Q97.6494,654.9531 97.6494,655.5625 L97.6494,657.0156 Q97.6494,657.625 97.415,657.8906 Q97.1806,658.1563 96.8056,658.1563 Q96.4619,658.1563 96.2588,657.9531 Q96.0556,657.7656 95.9463,657.25 Q95.8994,656.8906 95.7119,656.7031 Q95.3838,656.3281 94.7744,656.1094 Q94.165,655.8906 93.54,655.8906 Q92.7744,655.8906 92.1338,656.2188 Q91.5088,656.5469 91.0088,657.2969 Q90.5244,658.0469 90.5244,659.0781 L90.5244,660.1719 Q90.5244,661.4063 91.415,662.2344 Q92.3056,663.0469 93.8994,663.0469 Q94.8369,663.0469 95.4931,662.7969 Q95.8838,662.6406 96.3056,662.2031 Q96.5713,661.9375 96.7119,661.8594 Q96.8681,661.7813 97.0713,661.7813 Q97.3994,661.7813 97.6494,662.0469 Q97.915,662.2969 97.915,662.6406 Q97.915,662.9844 97.5713,663.3906 Q97.0713,663.9688 96.2744,664.2969 Q95.1963,664.75 93.8994,664.75 Q92.3838,664.75 91.1806,664.125 Q90.1963,663.625 89.5088,662.5625 Q88.8213,661.4844 88.8213,660.2031 L88.8213,659.0469 Q88.8213,657.7188 89.4306,656.5781 Q90.0556,655.4219 91.1494,654.8125 Q92.2431,654.1875 93.4775,654.1875 Q94.2119,654.1875 94.8525,654.3594 Q95.5088,654.5156 96.0556,654.875 Z " fill="#000000"/><text fill="#000000" font-family="sans-serif" font-size="14" lengthAdjust="spacing" textLength="108" x="108.99" y="664.7285">DisneyMainMenu</text><line style="stroke:#181818;stroke-width:0.5;" x1="71.64" x2="226.64" y1="675" y2="675"/><line style="stroke:#181818;stroke-width:0.5;" x1="71.64" x2="226.64" y1="683" y2="683"/><ellipse cx="81.64" cy="697.3047" fill="#84BE84" rx="3" ry="3" style="stroke:#038048;stroke-width:1.0;"/><text fill="#000000" font-family="sans-serif" font-size="14" lengthAdjust="spacing" textLength="131" x="90.64" y="701.5332">generateOptionList()</text><ellipse cx="81.64" cy="714.9141" fill="#84BE84" rx="3" ry="3" style="stroke:#038048;stroke-width:1.0;"/><text fill="#000000" font-family="sans-serif" font-size="14" lengthAdjust="spacing" textLength="89" x="90.64" y="719.1426">selectOption()</text></g><!--class DisneyPlayer--><g id="elem_DisneyPlayer"><rect codeLine="83" fill="#F1F1F1" height="83.2188" id="DisneyPlayer" rx="2.5" ry="2.5" style="stroke:#181818;stroke-width:0.5;" width="147" x="262.64" y="643"/><ellipse cx="292.04" cy="659" fill="#ADD1B2" rx="11" ry="11" style="stroke:#181818;stroke-width:1.0;"/><path d="M294.8056,654.875 Q294.9619,654.6563 295.1494,654.5469 Q295.3369,654.4375 295.5556,654.4375 Q295.9306,654.4375 296.165,654.7031 Q296.3994,654.9531 296.3994,655.5625 L296.3994,657.0156 Q296.3994,657.625 296.165,657.8906 Q295.9306,658.1563 295.5556,658.1563 Q295.2119,658.1563 295.0087,657.9531 Q294.8056,657.7656 294.6962,657.25 Q294.6494,656.8906 294.4619,656.7031 Q294.1337,656.3281 293.5244,656.1094 Q292.915,655.8906 292.29,655.8906 Q291.5244,655.8906 290.8837,656.2188 Q290.2587,656.5469 289.7587,657.2969 Q289.2744,658.0469 289.2744,659.0781 L289.2744,660.1719 Q289.2744,661.4063 290.165,662.2344 Q291.0556,663.0469 292.6494,663.0469 Q293.5869,663.0469 294.2431,662.7969 Q294.6337,662.6406 295.0556,662.2031 Q295.3212,661.9375 295.4619,661.8594 Q295.6181,661.7813 295.8212,661.7813 Q296.1494,661.7813 296.3994,662.0469 Q296.665,662.2969 296.665,662.6406 Q296.665,662.9844 296.3212,663.3906 Q295.8212,663.9688 295.0244,664.2969 Q293.9462,664.75 292.6494,664.75 Q291.1337,664.75 289.9306,664.125 Q288.9462,663.625 288.2587,662.5625 Q287.5712,661.4844 287.5712,660.2031 L287.5712,659.0469 Q287.5712,657.7188 288.1806,656.5781 Q288.8056,655.4219 289.8994,654.8125 Q290.9931,654.1875 292.2275,654.1875 Q292.9619,654.1875 293.6025,654.3594 Q294.2587,654.5156 294.8056,654.875 Z " fill="#000000"/><text fill="#000000" font-family="sans-serif" font-size="14" lengthAdjust="spacing" textLength="83" x="309.24" y="664.7285">DisneyPlayer</text><line style="stroke:#181818;stroke-width:0.5;" x1="263.64" x2="408.64" y1="675" y2="675"/><line style="stroke:#181818;stroke-width:0.5;" x1="263.64" x2="408.64" y1="683" y2="683"/><ellipse cx="273.64" cy="697.3047" fill="#84BE84" rx="3" ry="3" style="stroke:#038048;stroke-width:1.0;"/><text fill="#000000" font-family="sans-serif" font-size="14" lengthAdjust="spacing" textLength="107" x="282.64" y="701.5332">generatePlayer()</text><ellipse cx="273.64" cy="714.9141" fill="#84BE84" rx="3" ry="3" style="stroke:#038048;stroke-width:1.0;"/><text fill="#000000" font-family="sans-serif" font-size="14" lengthAdjust="spacing" textLength="121" x="282.64" y="719.1426">generateSubtitles()</text></g><!--class NetflixContentCard--><g id="elem_NetflixContentCard"><rect codeLine="88" fill="#F1F1F1" height="83.2188" id="NetflixContentCard" rx="2.5" ry="2.5" style="stroke:#181818;stroke-width:0.5;" width="150" x="446.14" y="357"/><ellipse cx="461.14" cy="373" fill="#ADD1B2" rx="11" ry="11" style="stroke:#181818;stroke-width:1.0;"/><path d="M463.9056,368.875 Q464.0619,368.6563 464.2494,368.5469 Q464.4369,368.4375 464.6556,368.4375 Q465.0306,368.4375 465.265,368.7031 Q465.4994,368.9531 465.4994,369.5625 L465.4994,371.0156 Q465.4994,371.625 465.265,371.8906 Q465.0306,372.1563 464.6556,372.1563 Q464.3119,372.1563 464.1088,371.9531 Q463.9056,371.7656 463.7963,371.25 Q463.7494,370.8906 463.5619,370.7031 Q463.2338,370.3281 462.6244,370.1094 Q462.015,369.8906 461.39,369.8906 Q460.6244,369.8906 459.9838,370.2188 Q459.3588,370.5469 458.8588,371.2969 Q458.3744,372.0469 458.3744,373.0781 L458.3744,374.1719 Q458.3744,375.4063 459.265,376.2344 Q460.1556,377.0469 461.7494,377.0469 Q462.6869,377.0469 463.3431,376.7969 Q463.7338,376.6406 464.1556,376.2031 Q464.4213,375.9375 464.5619,375.8594 Q464.7181,375.7813 464.9213,375.7813 Q465.2494,375.7813 465.4994,376.0469 Q465.765,376.2969 465.765,376.6406 Q465.765,376.9844 465.4213,377.3906 Q464.9213,377.9688 464.1244,378.2969 Q463.0463,378.75 461.7494,378.75 Q460.2338,378.75 459.0306,378.125 Q458.0463,377.625 457.3588,376.5625 Q456.6713,375.4844 456.6713,374.2031 L456.6713,373.0469 Q456.6713,371.7188 457.2806,370.5781 Q457.9056,369.4219 458.9994,368.8125 Q460.0931,368.1875 461.3275,368.1875 Q462.0619,368.1875 462.7025,368.3594 Q463.3588,368.5156 463.9056,368.875 Z " fill="#000000"/><text fill="#000000" font-family="sans-serif" font-size="14" lengthAdjust="spacing" textLength="118" x="475.14" y="378.7285">NetflixContentCard</text><line style="stroke:#181818;stroke-width:0.5;" x1="447.14" x2="595.14" y1="389" y2="389"/><line style="stroke:#181818;stroke-width:0.5;" x1="447.14" x2="595.14" y1="397" y2="397"/><ellipse cx="457.14" cy="411.3047" fill="#84BE84" rx="3" ry="3" style="stroke:#038048;stroke-width:1.0;"/><text fill="#000000" font-family="sans-serif" font-size="14" lengthAdjust="spacing" textLength="89" x="466.14" y="415.5332">selectOption()</text><ellipse cx="457.14" cy="428.9141" fill="#84BE84" rx="3" ry="3" style="stroke:#038048;stroke-width:1.0;"/><text fill="#000000" font-family="sans-serif" font-size="14" lengthAdjust="spacing" textLength="105" x="466.14" y="433.1426">generateCards()</text></g><!--class NetflixMainMenu--><g id="elem_NetflixMainMenu"><rect codeLine="93" fill="#F1F1F1" height="83.2188" id="NetflixMainMenu" rx="2.5" ry="2.5" style="stroke:#181818;stroke-width:0.5;" width="157" x="70.64" y="357"/><ellipse cx="95.99" cy="373" fill="#ADD1B2" rx="11" ry="11" style="stroke:#181818;stroke-width:1.0;"/><path d="M98.7556,368.875 Q98.9119,368.6563 99.0994,368.5469 Q99.2869,368.4375 99.5056,368.4375 Q99.8806,368.4375 100.115,368.7031 Q100.3494,368.9531 100.3494,369.5625 L100.3494,371.0156 Q100.3494,371.625 100.115,371.8906 Q99.8806,372.1563 99.5056,372.1563 Q99.1619,372.1563 98.9588,371.9531 Q98.7556,371.7656 98.6463,371.25 Q98.5994,370.8906 98.4119,370.7031 Q98.0838,370.3281 97.4744,370.1094 Q96.865,369.8906 96.24,369.8906 Q95.4744,369.8906 94.8338,370.2188 Q94.2088,370.5469 93.7088,371.2969 Q93.2244,372.0469 93.2244,373.0781 L93.2244,374.1719 Q93.2244,375.4063 94.115,376.2344 Q95.0056,377.0469 96.5994,377.0469 Q97.5369,377.0469 98.1931,376.7969 Q98.5838,376.6406 99.0056,376.2031 Q99.2713,375.9375 99.4119,375.8594 Q99.5681,375.7813 99.7713,375.7813 Q100.0994,375.7813 100.3494,376.0469 Q100.615,376.2969 100.615,376.6406 Q100.615,376.9844 100.2713,377.3906 Q99.7713,377.9688 98.9744,378.2969 Q97.8963,378.75 96.5994,378.75 Q95.0838,378.75 93.8806,378.125 Q92.8963,377.625 92.2088,376.5625 Q91.5213,375.4844 91.5213,374.2031 L91.5213,373.0469 Q91.5213,371.7188 92.1306,370.5781 Q92.7556,369.4219 93.8494,368.8125 Q94.9431,368.1875 96.1775,368.1875 Q96.9119,368.1875 97.5525,368.3594 Q98.2088,368.5156 98.7556,368.875 Z " fill="#000000"/><text fill="#000000" font-family="sans-serif" font-size="14" lengthAdjust="spacing" textLength="102" x="112.29" y="378.7285">NetflixMainMenu</text><line style="stroke:#181818;stroke-width:0.5;" x1="71.64" x2="226.64" y1="389" y2="389"/><line style="stroke:#181818;stroke-width:0.5;" x1="71.64" x2="226.64" y1="397" y2="397"/><ellipse cx="81.64" cy="411.3047" fill="#84BE84" rx="3" ry="3" style="stroke:#038048;stroke-width:1.0;"/><text fill="#000000" font-family="sans-serif" font-size="14" lengthAdjust="spacing" textLength="131" x="90.64" y="415.5332">generateOptionList()</text><ellipse cx="81.64" cy="428.9141" fill="#84BE84" rx="3" ry="3" style="stroke:#038048;stroke-width:1.0;"/><text fill="#000000" font-family="sans-serif" font-size="14" lengthAdjust="spacing" textLength="89" x="90.64" y="433.1426">selectOption()</text></g><!--class NetflixPlayer--><g id="elem_NetflixPlayer"><rect codeLine="98" fill="#F1F1F1" height="83.2188" id="NetflixPlayer" rx="2.5" ry="2.5" style="stroke:#181818;stroke-width:0.5;" width="147" x="262.64" y="357"/><ellipse cx="294.74" cy="373" fill="#ADD1B2" rx="11" ry="11" style="stroke:#181818;stroke-width:1.0;"/><path d="M297.5056,368.875 Q297.6619,368.6563 297.8494,368.5469 Q298.0369,368.4375 298.2556,368.4375 Q298.6306,368.4375 298.865,368.7031 Q299.0994,368.9531 299.0994,369.5625 L299.0994,371.0156 Q299.0994,371.625 298.865,371.8906 Q298.6306,372.1563 298.2556,372.1563 Q297.9119,372.1563 297.7088,371.9531 Q297.5056,371.7656 297.3963,371.25 Q297.3494,370.8906 297.1619,370.7031 Q296.8338,370.3281 296.2244,370.1094 Q295.615,369.8906 294.99,369.8906 Q294.2244,369.8906 293.5838,370.2188 Q292.9588,370.5469 292.4588,371.2969 Q291.9744,372.0469 291.9744,373.0781 L291.9744,374.1719 Q291.9744,375.4063 292.865,376.2344 Q293.7556,377.0469 295.3494,377.0469 Q296.2869,377.0469 296.9431,376.7969 Q297.3338,376.6406 297.7556,376.2031 Q298.0213,375.9375 298.1619,375.8594 Q298.3181,375.7813 298.5213,375.7813 Q298.8494,375.7813 299.0994,376.0469 Q299.365,376.2969 299.365,376.6406 Q299.365,376.9844 299.0213,377.3906 Q298.5213,377.9688 297.7244,378.2969 Q296.6463,378.75 295.3494,378.75 Q293.8338,378.75 292.6306,378.125 Q291.6463,377.625 290.9588,376.5625 Q290.2713,375.4844 290.2713,374.2031 L290.2713,373.0469 Q290.2713,371.7188 290.8806,370.5781 Q291.5056,369.4219 292.5994,368.8125 Q293.6931,368.1875 294.9275,368.1875 Q295.6619,368.1875 296.3025,368.3594 Q296.9588,368.5156 297.5056,368.875 Z " fill="#000000"/><text fill="#000000" font-family="sans-serif" font-size="14" lengthAdjust="spacing" textLength="77" x="312.54" y="378.7285">NetflixPlayer</text><line style="stroke:#181818;stroke-width:0.5;" x1="263.64" x2="408.64" y1="389" y2="389"/><line style="stroke:#181818;stroke-width:0.5;" x1="263.64" x2="408.64" y1="397" y2="397"/><ellipse cx="273.64" cy="411.3047" fill="#84BE84" rx="3" ry="3" style="stroke:#038048;stroke-width:1.0;"/><text fill="#000000" font-family="sans-serif" font-size="14" lengthAdjust="spacing" textLength="107" x="282.64" y="415.5332">generatePlayer()</text><ellipse cx="273.64" cy="428.9141" fill="#84BE84" rx="3" ry="3" style="stroke:#038048;stroke-width:1.0;"/><text fill="#000000" font-family="sans-serif" font-size="14" lengthAdjust="spacing" textLength="121" x="282.64" y="433.1426">generateSubtitles()</text></g><!--reverse link Device to Desktop--><g id="link_Device_Desktop"><path codeLine="103" d="M850.14,140.07 C850.14,163.24 850.14,172.75 850.14,195.92 " fill="none" id="Device-backto-Desktop" style="stroke:#181818;stroke-width:1.0;stroke-dasharray:7.0,7.0;"/><polygon fill="none" points="850.14,122.07,844.14,140.07,856.14,140.07,850.14,122.07" style="stroke:#181818;stroke-width:1.0;"/></g><!--reverse link Device to Mobile--><g id="link_Device_Mobile"><path codeLine="104" d="M933.2095,132.6265 C965.2095,155.7965 988.64,172.75 1020.65,195.92 " fill="none" id="Device-backto-Mobile" style="stroke:#181818;stroke-width:1.0;stroke-dasharray:7.0,7.0;"/><polygon fill="none" points="918.63,122.07,929.6907,137.4863,936.7283,127.7666,918.63,122.07" style="stroke:#181818;stroke-width:1.0;"/></g><!--reverse link StreamingWebSite to NetflixWebSite--><g id="link_StreamingWebSite_NetflixWebSite"><path codeLine="106" d="M530.1299,152.6951 C519.2699,175.6051 515.05,184.51 505.39,204.9 " fill="none" id="StreamingWebSite-backto-NetflixWebSite" style="stroke:#181818;stroke-width:1.0;"/><polygon fill="none" points="537.84,136.43,524.7082,150.1251,535.5516,155.2652,537.84,136.43" style="stroke:#181818;stroke-width:1.0;"/></g><!--reverse link StreamingWebSite to DisneyWebSite--><g id="link_StreamingWebSite_DisneyWebSite"><path codeLine="107" d="M605.7045,152.7307 C616.4345,175.6407 620.59,184.51 630.14,204.9 " fill="none" id="StreamingWebSite-backto-DisneyWebSite" style="stroke:#181818;stroke-width:1.0;"/><polygon fill="none" points="598.07,136.43,600.2709,155.2756,611.1381,150.1859,598.07,136.43" style="stroke:#181818;stroke-width:1.0;"/></g><!--link StreamingWebSite to Device--><g id="link_StreamingWebSite_Device"><path codeLine="109" d="M642.77,71.5 C677.88,71.5 706.98,71.5 742.08,71.5 " fill="none" id="StreamingWebSite-to-Device" style="stroke:#181818;stroke-width:1.0;stroke-dasharray:7.0,7.0;"/><polygon fill="#181818" points="748.08,71.5,739.08,67.5,743.08,71.5,739.08,75.5,748.08,71.5" style="stroke:#181818;stroke-width:1.0;"/></g><!--reverse link UIFactory to UIDisneyFactory--><g id="link_UIFactory_UIDisneyFactory"><path codeLine="111" d="M178.5333,133.2842 C105.5833,190.4642 17.14,280.57 17.14,397.5 C17.14,397.5 17.14,397.5 17.14,542.5 C17.14,625.61 6,657.56 53.14,726 C70.04,750.53 93.87,770.98 118.94,787.58 " fill="none" id="UIFactory-backto-UIDisneyFactory" style="stroke:#181818;stroke-width:1.0;stroke-dasharray:7.0,7.0;"/><polygon fill="none" points="192.7,122.18,174.8319,128.562,182.2347,138.0065,192.7,122.18" style="stroke:#181818;stroke-width:1.0;"/></g><!--reverse link UIFactory to UINetflixFactory--><g id="link_UIFactory_UINetflixFactory"><path codeLine="112" d="M264.14,140.07 C264.14,163.24 264.14,172.75 264.14,195.92 " fill="none" id="UIFactory-backto-UINetflixFactory" style="stroke:#181818;stroke-width:1.0;stroke-dasharray:7.0,7.0;"/><polygon fill="none" points="264.14,122.07,258.14,140.07,270.14,140.07,264.14,122.07" style="stroke:#181818;stroke-width:1.0;"/></g><!--reverse link UIFactory to StreamingWebSite--><g id="link_UIFactory_StreamingWebSite"><path codeLine="114" d="M393.35,71.5 C428.78,71.5 458.21,71.5 493.64,71.5 " fill="none" id="UIFactory-backto-StreamingWebSite" style="stroke:#181818;stroke-width:1.0;stroke-dasharray:7.0,7.0;"/><polygon fill="#181818" points="387.35,71.5,396.35,75.5,392.35,71.5,396.35,67.5,387.35,71.5" style="stroke:#181818;stroke-width:1.0;"/></g><!--reverse link ContentCard to DisneyContentCard--><g id="link_ContentCard_DisneyContentCard"><path codeLine="116" d="M522.5647,601.2795 C522.7047,619.9895 522.72,624.11 522.85,642.81 " fill="none" id="ContentCard-backto-DisneyContentCard" style="stroke:#181818;stroke-width:1.0;stroke-dasharray:7.0,7.0;"/><polygon fill="none" points="522.43,583.28,516.5649,601.3244,528.5645,601.2346,522.43,583.28" style="stroke:#181818;stroke-width:1.0;"/></g><!--reverse link Player to DisneyPlayer--><g id="link_Player_DisneyPlayer"><path codeLine="117" d="M336.14,601.28 C336.14,619.99 336.14,624.11 336.14,642.81 " fill="none" id="Player-backto-DisneyPlayer" style="stroke:#181818;stroke-width:1.0;stroke-dasharray:7.0,7.0;"/><polygon fill="none" points="336.14,583.28,330.14,601.28,342.14,601.28,336.14,583.28" style="stroke:#181818;stroke-width:1.0;"/></g><!--reverse link MainMenu to DisneyMainMenu--><g id="link_MainMenu_DisneyMainMenu"><path codeLine="118" d="M149.14,601.28 C149.14,619.99 149.14,624.11 149.14,642.81 " fill="none" id="MainMenu-backto-DisneyMainMenu" style="stroke:#181818;stroke-width:1.0;stroke-dasharray:7.0,7.0;"/><polygon fill="none" points="149.14,583.28,143.14,601.28,155.14,601.28,149.14,583.28" style="stroke:#181818;stroke-width:1.0;"/></g><!--reverse link DisneyContentCard to UIDisneyFactory--><g id="link_DisneyContentCard_UIDisneyFactory"><path codeLine="120" d="M445.9142,729.0581 C413.7242,747.2181 380.4,766.02 345.22,785.86 " fill="none" id="DisneyContentCard-backto-UIDisneyFactory" style="stroke:#181818;stroke-width:1.0;stroke-dasharray:7.0,7.0;"/><polygon fill="#181818" points="451.14,726.11,441.3359,727.0483,446.7852,728.5668,445.2668,734.016,451.14,726.11" style="stroke:#181818;stroke-width:1.0;"/></g><!--reverse link DisneyPlayer to UIDisneyFactory--><g id="link_DisneyPlayer_UIDisneyFactory"><path codeLine="121" d="M308.8794,731.4807 C298.1094,749.6407 288.29,766.19 276.54,786 " fill="none" id="DisneyPlayer-backto-UIDisneyFactory" style="stroke:#181818;stroke-width:1.0;stroke-dasharray:7.0,7.0;"/><polygon fill="#181818" points="311.94,726.32,303.9086,732.0206,309.3895,730.6206,310.7895,736.1014,311.94,726.32" style="stroke:#181818;stroke-width:1.0;"/></g><!--reverse link DisneyMainMenu to UIDisneyFactory--><g id="link_DisneyMainMenu_UIDisneyFactory"><path codeLine="122" d="M176.1274,731.4944 C186.7874,749.6544 196.49,766.19 208.11,786 " fill="none" id="DisneyMainMenu-backto-UIDisneyFactory" style="stroke:#181818;stroke-width:1.0;stroke-dasharray:7.0,7.0;"/><polygon fill="#181818" points="173.09,726.32,174.1965,736.1065,175.6212,730.632,181.0957,732.0567,173.09,726.32" style="stroke:#181818;stroke-width:1.0;"/></g><!--link NetflixContentCard to ContentCard--><g id="link_NetflixContentCard_ContentCard"><path codeLine="124" d="M521.43,440.28 C521.57,458.99 521.5949,463.1104 521.7249,481.8104 " fill="none" id="NetflixContentCard-to-ContentCard" style="stroke:#181818;stroke-width:1.0;stroke-dasharray:7.0,7.0;"/><polygon fill="none" points="521.85,499.81,527.7247,481.7687,515.725,481.8521,521.85,499.81" style="stroke:#181818;stroke-width:1.0;"/></g><!--link NetflixPlayer to Player--><g id="link_NetflixPlayer_Player"><path codeLine="125" d="M336.14,440.28 C336.14,458.99 336.14,463.11 336.14,481.81 " fill="none" id="NetflixPlayer-to-Player" style="stroke:#181818;stroke-width:1.0;stroke-dasharray:7.0,7.0;"/><polygon fill="none" points="336.14,499.81,342.14,481.81,330.14,481.81,336.14,499.81" style="stroke:#181818;stroke-width:1.0;"/></g><!--link NetflixMainMenu to MainMenu--><g id="link_NetflixMainMenu_MainMenu"><path codeLine="126" d="M149.14,440.28 C149.14,458.99 149.14,463.11 149.14,481.81 " fill="none" id="NetflixMainMenu-to-MainMenu" style="stroke:#181818;stroke-width:1.0;stroke-dasharray:7.0,7.0;"/><polygon fill="none" points="149.14,499.81,155.14,481.81,143.14,481.81,149.14,499.81" style="stroke:#181818;stroke-width:1.0;"/></g><!--link UINetflixFactory to NetflixContentCard--><g id="link_UINetflixFactory_NetflixContentCard"><path codeLine="128" d="M349.01,297.03 C382.2,316.4 414.6076,335.3263 446.1776,353.7463 " fill="none" id="UINetflixFactory-to-NetflixContentCard" style="stroke:#181818;stroke-width:1.0;stroke-dasharray:7.0,7.0;"/><polygon fill="#181818" points="451.36,356.77,445.6023,348.7795,447.0414,354.2502,441.5706,355.6893,451.36,356.77" style="stroke:#181818;stroke-width:1.0;"/></g><!--link UINetflixFactory to NetflixMainMenu--><g id="link_UINetflixFactory_NetflixMainMenu"><path codeLine="129" d="M226.17,297.03 C211.38,316.32 198.2904,333.3882 184.2004,351.7682 " fill="none" id="UINetflixFactory-to-NetflixMainMenu" style="stroke:#181818;stroke-width:1.0;stroke-dasharray:7.0,7.0;"/><polygon fill="#181818" points="180.55,356.53,189.2001,351.8209,183.592,352.5618,182.851,346.9537,180.55,356.53" style="stroke:#181818;stroke-width:1.0;"/></g><!--link UINetflixFactory to NetflixPlayer--><g id="link_UINetflixFactory_NetflixPlayer"><path codeLine="130" d="M287.92,297.03 C297.18,316.32 305.0642,332.7406 313.8842,351.1206 " fill="none" id="UINetflixFactory-to-NetflixPlayer" style="stroke:#181818;stroke-width:1.0;stroke-dasharray:7.0,7.0;"/><polygon fill="#181818" points="316.48,356.53,316.1926,346.6853,314.3168,352.0222,308.98,350.1464,316.48,356.53" style="stroke:#181818;stroke-width:1.0;"/></g><!--SRC=[lLNBRi8m4BpxAopr0gh81o34eLHLaKfR5I7EJh84gwc3xAKj0lwzJk8OnmaSoeCBYNSoEsFlhgEKAKMdA85zSP7C8Pno13eOi52XP14EXtHBgFxTqHY-UGHz-bZycyM5ncHoqwUpyLFvM0JkwRPYsDCmYpSV86AGdMupkWIc8pQ-9oGgHBq2BbB-MqdQcYzRo8unF78bOFCl0YuGfFO6ngtzEW6SHX80n9p7kEnq-pJErc4AZVWpy2G7K0-nIjccetTSRxUh5TGdPgkhvvba8K-lPgU-TROaR3fDnH0cZ8i9Y7L1LhtK4E-QD3yA7IyVQz5HfbC8734PvuATLt8mEXkNntzp2JciPs0FkjRSYfoDJLNVN5NjO9o0LQ0WXGZVLiWpOHiZ0G4o9zP8vNT69T0ffX9TahnmXPR8Ow_nb4OQB9LLRtcw3f5Z2ghPwUVOSddEC-OoNS2QAPZplHcYIvWpL6UvCtDri0k2QlZLrif1HKZpRjhrUjxbS0HKc_yjJ87aoHA3ONMZaSF0AYHu8wGPhZTpMuOK5dc2m-L8t8FKD77s8u9c_HApjnx2zBmzGoziHmRnfr-mNkK-6sbEuKooKv13Gi-MnhHKhkFA0RIOSgAk9szu1bf7Iv9JECjs2cG4aJy0]--></g></svg>