<?xml version="1.0" encoding="us-ascii" standalone="no"?><svg xmlns="http://www.w3.org/2000/svg" xmlns:xlink="http://www.w3.org/1999/xlink" contentStyleType="text/css" height="896px" preserveAspectRatio="none" style="width:853px;height:896px;background:#FFFFFF;" version="1.1" viewBox="0 0 853 896" width="853px" zoomAndPan="magnify"><defs/><g><!--class User--><g id="elem_User"><rect codeLine="2" fill="#F1F1F1" height="224.0938" id="User" rx="2.5" ry="2.5" style="stroke:#181818;stroke-width:0.5;" width="185" x="599" y="505"/><ellipse cx="672.75" cy="521" fill="#ADD1B2" rx="11" ry="11" style="stroke:#181818;stroke-width:1.0;"/><path d="M675.5156,516.875 Q675.6719,516.6563 675.8594,516.5469 Q676.0469,516.4375 676.2656,516.4375 Q676.6406,516.4375 676.875,516.7031 Q677.1094,516.9531 677.1094,517.5625 L677.1094,519.0156 Q677.1094,519.625 676.875,519.8906 Q676.6406,520.1563 676.2656,520.1563 Q675.9219,520.1563 675.7188,519.9531 Q675.5156,519.7656 675.4063,519.25 Q675.3594,518.8906 675.1719,518.7031 Q674.8438,518.3281 674.2344,518.1094 Q673.625,517.8906 673,517.8906 Q672.2344,517.8906 671.5938,518.2188 Q670.9688,518.5469 670.4688,519.2969 Q669.9844,520.0469 669.9844,521.0781 L669.9844,522.1719 Q669.9844,523.4063 670.875,524.2344 Q671.7656,525.0469 673.3594,525.0469 Q674.2969,525.0469 674.9531,524.7969 Q675.3438,524.6406 675.7656,524.2031 Q676.0313,523.9375 676.1719,523.8594 Q676.3281,523.7813 676.5313,523.7813 Q676.8594,523.7813 677.1094,524.0469 Q677.375,524.2969 677.375,524.6406 Q677.375,524.9844 677.0313,525.3906 Q676.5313,525.9688 675.7344,526.2969 Q674.6563,526.75 673.3594,526.75 Q671.8438,526.75 670.6406,526.125 Q669.6563,525.625 668.9688,524.5625 Q668.2813,523.4844 668.2813,522.2031 L668.2813,521.0469 Q668.2813,519.7188 668.8906,518.5781 Q669.5156,517.4219 670.6094,516.8125 Q671.7031,516.1875 672.9375,516.1875 Q673.6719,516.1875 674.3125,516.3594 Q674.9688,516.5156 675.5156,516.875 Z " fill="#000000"/><text fill="#000000" font-family="sans-serif" font-size="14" lengthAdjust="spacing" textLength="29" x="693.25" y="526.7285">User</text><line style="stroke:#181818;stroke-width:0.5;" x1="600" x2="783" y1="537" y2="537"/><rect fill="none" height="6" style="stroke:#C82930;stroke-width:1.0;" width="6" x="607" y="548.3047"/><text fill="#000000" font-family="sans-serif" font-size="14" lengthAdjust="spacing" textLength="84" x="619" y="555.5332">name : String</text><rect fill="none" height="6" style="stroke:#C82930;stroke-width:1.0;" width="6" x="607" y="565.9141"/><text fill="#000000" font-family="sans-serif" font-size="14" lengthAdjust="spacing" textLength="101" x="619" y="573.1426">idNumer : String</text><rect fill="none" height="6" style="stroke:#C82930;stroke-width:1.0;" width="6" x="607" y="583.5234"/><text fill="#000000" font-family="sans-serif" font-size="14" lengthAdjust="spacing" textLength="92" x="619" y="590.752">idType : String</text><rect fill="none" height="6" style="stroke:#C82930;stroke-width:1.0;" width="6" x="607" y="601.1328"/><text fill="#000000" font-family="sans-serif" font-size="14" lengthAdjust="spacing" textLength="109" x="619" y="608.3613">cardType : String</text><rect fill="none" height="6" style="stroke:#C82930;stroke-width:1.0;" width="6" x="607" y="618.7422"/><text fill="#000000" font-family="sans-serif" font-size="14" lengthAdjust="spacing" textLength="126" x="619" y="625.9707">cardNumber : String</text><line style="stroke:#181818;stroke-width:0.5;" x1="600" x2="783" y1="633.0469" y2="633.0469"/><ellipse cx="610" cy="647.3516" fill="#84BE84" rx="3" ry="3" style="stroke:#038048;stroke-width:1.0;"/><text fill="#000000" font-family="sans-serif" font-size="14" lengthAdjust="spacing" textLength="115" x="619" y="651.5801">getName() : String</text><ellipse cx="610" cy="664.9609" fill="#84BE84" rx="3" ry="3" style="stroke:#038048;stroke-width:1.0;"/><text fill="#000000" font-family="sans-serif" font-size="14" lengthAdjust="spacing" textLength="131" x="619" y="669.1895">getIdNumer() : String</text><ellipse cx="610" cy="682.5703" fill="#84BE84" rx="3" ry="3" style="stroke:#038048;stroke-width:1.0;"/><text fill="#000000" font-family="sans-serif" font-size="14" lengthAdjust="spacing" textLength="122" x="619" y="686.7988">getIdType() : String</text><ellipse cx="610" cy="700.1797" fill="#84BE84" rx="3" ry="3" style="stroke:#038048;stroke-width:1.0;"/><text fill="#000000" font-family="sans-serif" font-size="14" lengthAdjust="spacing" textLength="142" x="619" y="704.4082">getCardType() : String</text><ellipse cx="610" cy="717.7891" fill="#84BE84" rx="3" ry="3" style="stroke:#038048;stroke-width:1.0;"/><text fill="#000000" font-family="sans-serif" font-size="14" lengthAdjust="spacing" textLength="159" x="619" y="722.0176">getCardNumber() : String</text></g><!--class Builder--><g id="elem_Builder"><rect codeLine="15" fill="#F1F1F1" height="136.0469" id="Builder" rx="2.5" ry="2.5" style="stroke:#181818;stroke-width:0.5;" width="309" x="537" y="7"/><ellipse cx="665.25" cy="23" fill="#B4A7E5" rx="11" ry="11" style="stroke:#181818;stroke-width:1.0;"/><path d="M666.2031,19.6406 L666.2031,26.2969 L667.9219,26.2969 Q668.5313,26.2969 668.7969,26.5313 Q669.0625,26.7656 669.0625,27.1563 Q669.0625,27.5313 668.7969,27.7656 Q668.5313,28 667.9219,28 L662.7813,28 Q662.1719,28 661.9063,27.7656 Q661.6406,27.5313 661.6406,27.1406 Q661.6406,26.7656 661.9063,26.5313 Q662.1719,26.2969 662.7813,26.2969 L664.5,26.2969 L664.5,19.6406 L662.7813,19.6406 Q662.1719,19.6406 661.9063,19.4063 Q661.6406,19.1719 661.6406,18.7813 Q661.6406,18.4063 661.9063,18.1719 Q662.1719,17.9375 662.7813,17.9375 L667.9219,17.9375 Q668.5313,17.9375 668.7969,18.1719 Q669.0625,18.4063 669.0625,18.7813 Q669.0625,19.1719 668.7969,19.4063 Q668.5313,19.6406 667.9219,19.6406 L666.2031,19.6406 Z " fill="#000000"/><text fill="#000000" font-family="sans-serif" font-size="14" font-style="italic" lengthAdjust="spacing" textLength="44" x="685.75" y="28.7285">Builder</text><line style="stroke:#181818;stroke-width:0.5;" x1="538" x2="845" y1="39" y2="39"/><line style="stroke:#181818;stroke-width:0.5;" x1="538" x2="845" y1="47" y2="47"/><ellipse cx="548" cy="61.3047" fill="#84BE84" rx="3" ry="3" style="stroke:#038048;stroke-width:1.0;"/><text fill="#000000" font-family="sans-serif" font-size="14" lengthAdjust="spacing" textLength="197" x="557" y="65.5332">setName(String name) : Builder</text><ellipse cx="548" cy="78.9141" fill="#84BE84" rx="3" ry="3" style="stroke:#038048;stroke-width:1.0;"/><text fill="#000000" font-family="sans-serif" font-size="14" lengthAdjust="spacing" textLength="238" x="557" y="83.1426">setIdNumer(String idNumber) : Builder</text><ellipse cx="548" cy="96.5234" fill="#84BE84" rx="3" ry="3" style="stroke:#038048;stroke-width:1.0;"/><text fill="#000000" font-family="sans-serif" font-size="14" lengthAdjust="spacing" textLength="212" x="557" y="100.752">setIdType(String idType) : Builder</text><ellipse cx="548" cy="114.1328" fill="#84BE84" rx="3" ry="3" style="stroke:#038048;stroke-width:1.0;"/><text fill="#000000" font-family="sans-serif" font-size="14" lengthAdjust="spacing" textLength="249" x="557" y="118.3613">setCardType(String cardType) : Builder</text><ellipse cx="548" cy="131.7422" fill="#84BE84" rx="3" ry="3" style="stroke:#038048;stroke-width:1.0;"/><text fill="#000000" font-family="sans-serif" font-size="14" lengthAdjust="spacing" textLength="283" x="557" y="135.9707">setCardNumber(String cardNumber) : Builder</text></g><!--class UserBuilder--><g id="elem_UserBuilder"><rect codeLine="23" fill="#F1F1F1" height="241.7031" id="UserBuilder" rx="2.5" ry="2.5" style="stroke:#181818;stroke-width:0.5;" width="309" x="537" y="203"/><ellipse cx="650.75" cy="219" fill="#ADD1B2" rx="11" ry="11" style="stroke:#181818;stroke-width:1.0;"/><path d="M653.5156,214.875 Q653.6719,214.6563 653.8594,214.5469 Q654.0469,214.4375 654.2656,214.4375 Q654.6406,214.4375 654.875,214.7031 Q655.1094,214.9531 655.1094,215.5625 L655.1094,217.0156 Q655.1094,217.625 654.875,217.8906 Q654.6406,218.1563 654.2656,218.1563 Q653.9219,218.1563 653.7188,217.9531 Q653.5156,217.7656 653.4063,217.25 Q653.3594,216.8906 653.1719,216.7031 Q652.8438,216.3281 652.2344,216.1094 Q651.625,215.8906 651,215.8906 Q650.2344,215.8906 649.5938,216.2188 Q648.9688,216.5469 648.4688,217.2969 Q647.9844,218.0469 647.9844,219.0781 L647.9844,220.1719 Q647.9844,221.4063 648.875,222.2344 Q649.7656,223.0469 651.3594,223.0469 Q652.2969,223.0469 652.9531,222.7969 Q653.3438,222.6406 653.7656,222.2031 Q654.0313,221.9375 654.1719,221.8594 Q654.3281,221.7813 654.5313,221.7813 Q654.8594,221.7813 655.1094,222.0469 Q655.375,222.2969 655.375,222.6406 Q655.375,222.9844 655.0313,223.3906 Q654.5313,223.9688 653.7344,224.2969 Q652.6563,224.75 651.3594,224.75 Q649.8438,224.75 648.6406,224.125 Q647.6563,223.625 646.9688,222.5625 Q646.2813,221.4844 646.2813,220.2031 L646.2813,219.0469 Q646.2813,217.7188 646.8906,216.5781 Q647.5156,215.4219 648.6094,214.8125 Q649.7031,214.1875 650.9375,214.1875 Q651.6719,214.1875 652.3125,214.3594 Q652.9688,214.5156 653.5156,214.875 Z " fill="#000000"/><text fill="#000000" font-family="sans-serif" font-size="14" lengthAdjust="spacing" textLength="73" x="671.25" y="224.7285">UserBuilder</text><line style="stroke:#181818;stroke-width:0.5;" x1="538" x2="845" y1="235" y2="235"/><rect fill="none" height="6" style="stroke:#C82930;stroke-width:1.0;" width="6" x="545" y="246.3047"/><text fill="#000000" font-family="sans-serif" font-size="14" lengthAdjust="spacing" textLength="84" x="557" y="253.5332">name : String</text><rect fill="none" height="6" style="stroke:#C82930;stroke-width:1.0;" width="6" x="545" y="263.9141"/><text fill="#000000" font-family="sans-serif" font-size="14" lengthAdjust="spacing" textLength="101" x="557" y="271.1426">idNumer : String</text><rect fill="none" height="6" style="stroke:#C82930;stroke-width:1.0;" width="6" x="545" y="281.5234"/><text fill="#000000" font-family="sans-serif" font-size="14" lengthAdjust="spacing" textLength="92" x="557" y="288.752">idType : String</text><rect fill="none" height="6" style="stroke:#C82930;stroke-width:1.0;" width="6" x="545" y="299.1328"/><text fill="#000000" font-family="sans-serif" font-size="14" lengthAdjust="spacing" textLength="109" x="557" y="306.3613">cardType : String</text><rect fill="none" height="6" style="stroke:#C82930;stroke-width:1.0;" width="6" x="545" y="316.7422"/><text fill="#000000" font-family="sans-serif" font-size="14" lengthAdjust="spacing" textLength="126" x="557" y="323.9707">cardNumber : String</text><line style="stroke:#181818;stroke-width:0.5;" x1="538" x2="845" y1="331.0469" y2="331.0469"/><ellipse cx="548" cy="345.3516" fill="#84BE84" rx="3" ry="3" style="stroke:#038048;stroke-width:1.0;"/><text fill="#000000" font-family="sans-serif" font-size="14" lengthAdjust="spacing" textLength="197" x="557" y="349.5801">setName(String name) : Builder</text><ellipse cx="548" cy="362.9609" fill="#84BE84" rx="3" ry="3" style="stroke:#038048;stroke-width:1.0;"/><text fill="#000000" font-family="sans-serif" font-size="14" lengthAdjust="spacing" textLength="238" x="557" y="367.1895">setIdNumer(String idNumber) : Builder</text><ellipse cx="548" cy="380.5703" fill="#84BE84" rx="3" ry="3" style="stroke:#038048;stroke-width:1.0;"/><text fill="#000000" font-family="sans-serif" font-size="14" lengthAdjust="spacing" textLength="212" x="557" y="384.7988">setIdType(String idType) : Builder</text><ellipse cx="548" cy="398.1797" fill="#84BE84" rx="3" ry="3" style="stroke:#038048;stroke-width:1.0;"/><text fill="#000000" font-family="sans-serif" font-size="14" lengthAdjust="spacing" textLength="249" x="557" y="402.4082">setCardType(String cardType) : Builder</text><ellipse cx="548" cy="415.7891" fill="#84BE84" rx="3" ry="3" style="stroke:#038048;stroke-width:1.0;"/><text fill="#000000" font-family="sans-serif" font-size="14" lengthAdjust="spacing" textLength="283" x="557" y="420.0176">setCardNumber(String cardNumber) : Builder</text><ellipse cx="548" cy="433.3984" fill="#84BE84" rx="3" ry="3" style="stroke:#038048;stroke-width:1.0;"/><text fill="#000000" font-family="sans-serif" font-size="14" lengthAdjust="spacing" textLength="81" x="557" y="437.627">build() : User</text></g><!--class TemplatePayment--><g id="elem_TemplatePayment"><rect codeLine="38" fill="#F1F1F1" height="129.1406" id="TemplatePayment" rx="2.5" ry="2.5" style="stroke:#181818;stroke-width:0.5;" width="372" x="191.5" y="552.5"/><ellipse cx="316.25" cy="573.8516" fill="#ADD1B2" rx="11" ry="11" style="stroke:#181818;stroke-width:1.0;"/><path d="M319.0156,569.7266 Q319.1719,569.5078 319.3594,569.3984 Q319.5469,569.2891 319.7656,569.2891 Q320.1406,569.2891 320.375,569.5547 Q320.6094,569.8047 320.6094,570.4141 L320.6094,571.8672 Q320.6094,572.4766 320.375,572.7422 Q320.1406,573.0078 319.7656,573.0078 Q319.4219,573.0078 319.2188,572.8047 Q319.0156,572.6172 318.9063,572.1016 Q318.8594,571.7422 318.6719,571.5547 Q318.3438,571.1797 317.7344,570.9609 Q317.125,570.7422 316.5,570.7422 Q315.7344,570.7422 315.0938,571.0703 Q314.4688,571.3984 313.9688,572.1484 Q313.4844,572.8984 313.4844,573.9297 L313.4844,575.0234 Q313.4844,576.2578 314.375,577.0859 Q315.2656,577.8984 316.8594,577.8984 Q317.7969,577.8984 318.4531,577.6484 Q318.8438,577.4922 319.2656,577.0547 Q319.5313,576.7891 319.6719,576.7109 Q319.8281,576.6328 320.0313,576.6328 Q320.3594,576.6328 320.6094,576.8984 Q320.875,577.1484 320.875,577.4922 Q320.875,577.8359 320.5313,578.2422 Q320.0313,578.8203 319.2344,579.1484 Q318.1563,579.6016 316.8594,579.6016 Q315.3438,579.6016 314.1406,578.9766 Q313.1563,578.4766 312.4688,577.4141 Q311.7813,576.3359 311.7813,575.0547 L311.7813,573.8984 Q311.7813,572.5703 312.3906,571.4297 Q313.0156,570.2734 314.1094,569.6641 Q315.2031,569.0391 316.4375,569.0391 Q317.1719,569.0391 317.8125,569.2109 Q318.4688,569.3672 319.0156,569.7266 Z " fill="#000000"/><text fill="#000000" font-family="sans-serif" font-size="12" font-style="italic" lengthAdjust="spacing" textLength="58" x="364.75" y="569.957">&#171;abstract&#187;</text><text fill="#000000" font-family="sans-serif" font-size="14" lengthAdjust="spacing" textLength="114" x="336.75" y="587.127">TemplatePayment</text><line style="stroke:#181818;stroke-width:0.5;" x1="192.5" x2="562.5" y1="595.2031" y2="595.2031"/><line style="stroke:#181818;stroke-width:0.5;" x1="192.5" x2="562.5" y1="603.2031" y2="603.2031"/><ellipse cx="202.5" cy="617.5078" fill="#84BE84" rx="3" ry="3" style="stroke:#038048;stroke-width:1.0;"/><text fill="#000000" font-family="sans-serif" font-size="14" lengthAdjust="spacing" textLength="346" x="211.5" y="621.7363">{final} processPayment (User user, double amountPay)</text><polygon fill="#FFFF44" points="202.5,630.1172,206.5,634.1172,202.5,638.1172,198.5,634.1172" style="stroke:#B38D22;stroke-width:1.0;"/><text fill="#000000" font-family="sans-serif" font-size="14" font-style="italic" lengthAdjust="spacing" textLength="325" x="211.5" y="639.3457">validateMethodPayment(String cardType) : boolean</text><polygon fill="#FFFF44" points="202.5,647.7266,206.5,651.7266,202.5,655.7266,198.5,651.7266" style="stroke:#B38D22;stroke-width:1.0;"/><text fill="#000000" font-family="sans-serif" font-size="14" font-style="italic" lengthAdjust="spacing" textLength="282" x="211.5" y="656.9551">amountAccount(String cardNumber) : double</text><polygon fill="#FFFF44" points="202.5,665.3359,206.5,669.3359,202.5,673.3359,198.5,669.3359" style="stroke:#B38D22;stroke-width:1.0;"/><text fill="#000000" font-family="sans-serif" font-size="14" font-style="italic" lengthAdjust="spacing" textLength="321" x="211.5" y="674.5645">makePayment(String cardNumber, double amount)</text></g><!--class DebitCardPayment--><g id="elem_DebitCardPayment"><rect codeLine="45" fill="#F1F1F1" height="100.8281" id="DebitCardPayment" rx="2.5" ry="2.5" style="stroke:#181818;stroke-width:0.5;" width="351" x="9" y="789"/><ellipse cx="120.75" cy="805" fill="#ADD1B2" rx="11" ry="11" style="stroke:#181818;stroke-width:1.0;"/><path d="M123.5156,800.875 Q123.6719,800.6563 123.8594,800.5469 Q124.0469,800.4375 124.2656,800.4375 Q124.6406,800.4375 124.875,800.7031 Q125.1094,800.9531 125.1094,801.5625 L125.1094,803.0156 Q125.1094,803.625 124.875,803.8906 Q124.6406,804.1563 124.2656,804.1563 Q123.9219,804.1563 123.7188,803.9531 Q123.5156,803.7656 123.4063,803.25 Q123.3594,802.8906 123.1719,802.7031 Q122.8438,802.3281 122.2344,802.1094 Q121.625,801.8906 121,801.8906 Q120.2344,801.8906 119.5938,802.2188 Q118.9688,802.5469 118.4688,803.2969 Q117.9844,804.0469 117.9844,805.0781 L117.9844,806.1719 Q117.9844,807.4063 118.875,808.2344 Q119.7656,809.0469 121.3594,809.0469 Q122.2969,809.0469 122.9531,808.7969 Q123.3438,808.6406 123.7656,808.2031 Q124.0313,807.9375 124.1719,807.8594 Q124.3281,807.7813 124.5313,807.7813 Q124.8594,807.7813 125.1094,808.0469 Q125.375,808.2969 125.375,808.6406 Q125.375,808.9844 125.0313,809.3906 Q124.5313,809.9688 123.7344,810.2969 Q122.6563,810.75 121.3594,810.75 Q119.8438,810.75 118.6406,810.125 Q117.6563,809.625 116.9688,808.5625 Q116.2813,807.4844 116.2813,806.2031 L116.2813,805.0469 Q116.2813,803.7188 116.8906,802.5781 Q117.5156,801.4219 118.6094,800.8125 Q119.7031,800.1875 120.9375,800.1875 Q121.6719,800.1875 122.3125,800.3594 Q122.9688,800.5156 123.5156,800.875 Z " fill="#000000"/><text fill="#000000" font-family="sans-serif" font-size="14" lengthAdjust="spacing" textLength="119" x="141.25" y="810.7285">DebitCardPayment</text><line style="stroke:#181818;stroke-width:0.5;" x1="10" x2="359" y1="821" y2="821"/><line style="stroke:#181818;stroke-width:0.5;" x1="10" x2="359" y1="829" y2="829"/><polygon fill="#FFFF44" points="20,838.3047,24,842.3047,20,846.3047,16,842.3047" style="stroke:#B38D22;stroke-width:1.0;"/><text fill="#000000" font-family="sans-serif" font-size="14" lengthAdjust="spacing" textLength="325" x="29" y="847.5332">validateMethodPayment(String cardType) : boolean</text><polygon fill="#FFFF44" points="20,855.9141,24,859.9141,20,863.9141,16,859.9141" style="stroke:#B38D22;stroke-width:1.0;"/><text fill="#000000" font-family="sans-serif" font-size="14" lengthAdjust="spacing" textLength="281" x="29" y="865.1426">amountAccount(String cardNumber) : double</text><polygon fill="#FFFF44" points="20,873.5234,24,877.5234,20,881.5234,16,877.5234" style="stroke:#B38D22;stroke-width:1.0;"/><text fill="#000000" font-family="sans-serif" font-size="14" lengthAdjust="spacing" textLength="319" x="29" y="882.752">makePayment(String cardNumber, double amount)</text></g><!--class CreditCardPayment--><g id="elem_CreditCardPayment"><rect codeLine="50" fill="#F1F1F1" height="100.8281" id="CreditCardPayment" rx="2.5" ry="2.5" style="stroke:#181818;stroke-width:0.5;" width="351" x="395" y="789"/><ellipse cx="504.25" cy="805" fill="#ADD1B2" rx="11" ry="11" style="stroke:#181818;stroke-width:1.0;"/><path d="M507.0156,800.875 Q507.1719,800.6563 507.3594,800.5469 Q507.5469,800.4375 507.7656,800.4375 Q508.1406,800.4375 508.375,800.7031 Q508.6094,800.9531 508.6094,801.5625 L508.6094,803.0156 Q508.6094,803.625 508.375,803.8906 Q508.1406,804.1563 507.7656,804.1563 Q507.4219,804.1563 507.2188,803.9531 Q507.0156,803.7656 506.9063,803.25 Q506.8594,802.8906 506.6719,802.7031 Q506.3438,802.3281 505.7344,802.1094 Q505.125,801.8906 504.5,801.8906 Q503.7344,801.8906 503.0938,802.2188 Q502.4688,802.5469 501.9688,803.2969 Q501.4844,804.0469 501.4844,805.0781 L501.4844,806.1719 Q501.4844,807.4063 502.375,808.2344 Q503.2656,809.0469 504.8594,809.0469 Q505.7969,809.0469 506.4531,808.7969 Q506.8438,808.6406 507.2656,808.2031 Q507.5313,807.9375 507.6719,807.8594 Q507.8281,807.7813 508.0313,807.7813 Q508.3594,807.7813 508.6094,808.0469 Q508.875,808.2969 508.875,808.6406 Q508.875,808.9844 508.5313,809.3906 Q508.0313,809.9688 507.2344,810.2969 Q506.1563,810.75 504.8594,810.75 Q503.3438,810.75 502.1406,810.125 Q501.1563,809.625 500.4688,808.5625 Q499.7813,807.4844 499.7813,806.2031 L499.7813,805.0469 Q499.7813,803.7188 500.3906,802.5781 Q501.0156,801.4219 502.1094,800.8125 Q503.2031,800.1875 504.4375,800.1875 Q505.1719,800.1875 505.8125,800.3594 Q506.4688,800.5156 507.0156,800.875 Z " fill="#000000"/><text fill="#000000" font-family="sans-serif" font-size="14" lengthAdjust="spacing" textLength="124" x="524.75" y="810.7285">CreditCardPayment</text><line style="stroke:#181818;stroke-width:0.5;" x1="396" x2="745" y1="821" y2="821"/><line style="stroke:#181818;stroke-width:0.5;" x1="396" x2="745" y1="829" y2="829"/><polygon fill="#FFFF44" points="406,838.3047,410,842.3047,406,846.3047,402,842.3047" style="stroke:#B38D22;stroke-width:1.0;"/><text fill="#000000" font-family="sans-serif" font-size="14" lengthAdjust="spacing" textLength="325" x="415" y="847.5332">validateMethodPayment(String cardType) : boolean</text><polygon fill="#FFFF44" points="406,855.9141,410,859.9141,406,863.9141,402,859.9141" style="stroke:#B38D22;stroke-width:1.0;"/><text fill="#000000" font-family="sans-serif" font-size="14" lengthAdjust="spacing" textLength="281" x="415" y="865.1426">amountAccount(String cardNumber) : double</text><polygon fill="#FFFF44" points="406,873.5234,410,877.5234,406,881.5234,402,877.5234" style="stroke:#B38D22;stroke-width:1.0;"/><text fill="#000000" font-family="sans-serif" font-size="14" lengthAdjust="spacing" textLength="319" x="415" y="882.752">makePayment(String cardNumber, double amount)</text></g><!--reverse link Builder to UserBuilder--><g id="link_Builder_UserBuilder"><path codeLine="57" d="M691.5,161.17 C691.5,179.6 691.5,182.15 691.5,202.6 " fill="none" id="Builder-backto-UserBuilder" style="stroke:#181818;stroke-width:1.0;stroke-dasharray:7.0,7.0;"/><polygon fill="none" points="691.5,143.17,685.5,161.17,697.5,161.17,691.5,143.17" style="stroke:#181818;stroke-width:1.0;"/></g><!--link UserBuilder to User--><g id="link_UserBuilder_User"><path codeLine="58" d="M691.5,445.04 C691.5,464.77 691.5,479.14 691.5,498.64 " fill="none" id="UserBuilder-to-User" style="stroke:#181818;stroke-width:1.0;"/><polygon fill="#181818" points="691.5,504.64,695.5,495.64,691.5,499.64,687.5,495.64,691.5,504.64" style="stroke:#181818;stroke-width:1.0;"/></g><!--reverse link TemplatePayment to DebitCardPayment--><g id="link_TemplatePayment_DebitCardPayment"><path codeLine="59" d="M309.8244,695.3242 C279.9844,729.4142 255.65,757.21 227.94,788.87 " fill="none" id="TemplatePayment-backto-DebitCardPayment" style="stroke:#181818;stroke-width:1.0;"/><polygon fill="none" points="321.68,681.78,305.3097,691.3723,314.3391,699.276,321.68,681.78" style="stroke:#181818;stroke-width:1.0;"/></g><!--reverse link TemplatePayment to CreditCardPayment--><g id="link_TemplatePayment_CreditCardPayment"><path codeLine="60" d="M445.1756,695.3242 C475.0156,729.4142 499.35,757.21 527.06,788.87 " fill="none" id="TemplatePayment-backto-CreditCardPayment" style="stroke:#181818;stroke-width:1.0;"/><polygon fill="none" points="433.32,681.78,440.6609,699.276,449.6903,691.3723,433.32,681.78" style="stroke:#181818;stroke-width:1.0;"/></g><!--link TemplatePayment to User--><g id="link_TemplatePayment_User"><path codeLine="62" d="M575.63,617 C587.29,617 580.94,617 592.6,617 " fill="none" id="TemplatePayment-User" style="stroke:#181818;stroke-width:1.0;stroke-dasharray:7.0,7.0;"/><polygon fill="none" points="563.63,617,569.63,621,575.63,617,569.63,613,563.63,617" style="stroke:#181818;stroke-width:1.0;"/><polygon fill="#181818" points="598.6,617,589.6,613,593.6,617,589.6,621,598.6,617" style="stroke:#181818;stroke-width:1.0;"/></g><!--SRC=[tLH1JiCm4Bpx5IjnQLNI1w2g4fGB1oeaoWCSPrii7Bko7QGgxTznOYSDjNCe1oJ88P6zixipaxMPeCR0cq4DDG7tP21fYN07hrPpkGjxl5XNfSD4svl3FW8pgaVtNPdyiiuCTcZNhkjacWWy-TOZiQPFChGA94Q3diamV2A4IujwInd2GyL5qRio0nCeUcnhKfCQO6TGHpVWUEWpWcqPzj1cbGJsOWAqStWK7CGDu34D9vVrV_-xt5yUWdzhiK_8crKxQ8tJPzytMEu5jVX23oLA2ui5qDnOJPc5vRAVl7hB9HKds6l5q9WEFMaFRULUjr2eAXS8j5ILj0umRLDleExgdU2J2bwuPizetrKHYgJ4vae9f3AkuAlVCzPyqhezZpYrf1-OQEaJB-XFpmOzOivRhplDTIZzGp7NAhYMjcUzqbZyATg4TAT_SPpFXzS16LuDMRRq0npDxJ7Bed-LHaNUa0Ydvg7D5m00]--></g></svg>