<?xml version="1.0" encoding="us-ascii" standalone="no"?><svg xmlns="http://www.w3.org/2000/svg" xmlns:xlink="http://www.w3.org/1999/xlink" contentStyleType="text/css" height="429px" preserveAspectRatio="none" style="width:518px;height:429px;background:#FFFFFF;" version="1.1" viewBox="0 0 518 429" width="518px" zoomAndPan="magnify"><defs/><g><!--class BasicDelivery--><g id="elem_BasicDelivery"><rect codeLine="2" fill="#F1F1F1" height="83.2188" id="BasicDelivery" rx="2.5" ry="2.5" style="stroke:#181818;stroke-width:0.5;" width="177" x="7" y="7"/><ellipse cx="49" cy="23" fill="#ADD1B2" rx="11" ry="11" style="stroke:#181818;stroke-width:1.0;"/><path d="M51.7656,18.875 Q51.9219,18.6563 52.1094,18.5469 Q52.2969,18.4375 52.5156,18.4375 Q52.8906,18.4375 53.125,18.7031 Q53.3594,18.9531 53.3594,19.5625 L53.3594,21.0156 Q53.3594,21.625 53.125,21.8906 Q52.8906,22.1563 52.5156,22.1563 Q52.1719,22.1563 51.9688,21.9531 Q51.7656,21.7656 51.6563,21.25 Q51.6094,20.8906 51.4219,20.7031 Q51.0938,20.3281 50.4844,20.1094 Q49.875,19.8906 49.25,19.8906 Q48.4844,19.8906 47.8438,20.2188 Q47.2188,20.5469 46.7188,21.2969 Q46.2344,22.0469 46.2344,23.0781 L46.2344,24.1719 Q46.2344,25.4063 47.125,26.2344 Q48.0156,27.0469 49.6094,27.0469 Q50.5469,27.0469 51.2031,26.7969 Q51.5938,26.6406 52.0156,26.2031 Q52.2813,25.9375 52.4219,25.8594 Q52.5781,25.7813 52.7813,25.7813 Q53.1094,25.7813 53.3594,26.0469 Q53.625,26.2969 53.625,26.6406 Q53.625,26.9844 53.2813,27.3906 Q52.7813,27.9688 51.9844,28.2969 Q50.9063,28.75 49.6094,28.75 Q48.0938,28.75 46.8906,28.125 Q45.9063,27.625 45.2188,26.5625 Q44.5313,25.4844 44.5313,24.2031 L44.5313,23.0469 Q44.5313,21.7188 45.1406,20.5781 Q45.7656,19.4219 46.8594,18.8125 Q47.9531,18.1875 49.1875,18.1875 Q49.9219,18.1875 50.5625,18.3594 Q51.2188,18.5156 51.7656,18.875 Z " fill="#000000"/><text fill="#000000" font-family="sans-serif" font-size="14" lengthAdjust="spacing" textLength="85" x="69" y="28.7285">BasicDelivery</text><line style="stroke:#181818;stroke-width:0.5;" x1="8" x2="183" y1="39" y2="39"/><line style="stroke:#181818;stroke-width:0.5;" x1="8" x2="183" y1="47" y2="47"/><ellipse cx="18" cy="61.3047" fill="#84BE84" rx="3" ry="3" style="stroke:#038048;stroke-width:1.0;"/><text fill="#000000" font-family="sans-serif" font-size="14" lengthAdjust="spacing" textLength="52" x="27" y="65.5332">deliver()</text><ellipse cx="18" cy="78.9141" fill="#84BE84" rx="3" ry="3" style="stroke:#038048;stroke-width:1.0;"/><text fill="#000000" font-family="sans-serif" font-size="14" lengthAdjust="spacing" textLength="151" x="27" y="83.1426">generateCost() : double</text></g><!--class Delivery--><g id="elem_Delivery"><rect codeLine="7" fill="#F1F1F1" height="83.2188" id="Delivery" rx="2.5" ry="2.5" style="stroke:#181818;stroke-width:0.5;" width="177" x="219" y="7"/><ellipse cx="278.25" cy="23" fill="#B4A7E5" rx="11" ry="11" style="stroke:#181818;stroke-width:1.0;"/><path d="M279.2031,19.6406 L279.2031,26.2969 L280.9219,26.2969 Q281.5313,26.2969 281.7969,26.5313 Q282.0625,26.7656 282.0625,27.1563 Q282.0625,27.5313 281.7969,27.7656 Q281.5313,28 280.9219,28 L275.7813,28 Q275.1719,28 274.9063,27.7656 Q274.6406,27.5313 274.6406,27.1406 Q274.6406,26.7656 274.9063,26.5313 Q275.1719,26.2969 275.7813,26.2969 L277.5,26.2969 L277.5,19.6406 L275.7813,19.6406 Q275.1719,19.6406 274.9063,19.4063 Q274.6406,19.1719 274.6406,18.7813 Q274.6406,18.4063 274.9063,18.1719 Q275.1719,17.9375 275.7813,17.9375 L280.9219,17.9375 Q281.5313,17.9375 281.7969,18.1719 Q282.0625,18.4063 282.0625,18.7813 Q282.0625,19.1719 281.7969,19.4063 Q281.5313,19.6406 280.9219,19.6406 L279.2031,19.6406 Z " fill="#000000"/><text fill="#000000" font-family="sans-serif" font-size="14" font-style="italic" lengthAdjust="spacing" textLength="50" x="298.75" y="28.7285">Delivery</text><line style="stroke:#181818;stroke-width:0.5;" x1="220" x2="395" y1="39" y2="39"/><line style="stroke:#181818;stroke-width:0.5;" x1="220" x2="395" y1="47" y2="47"/><ellipse cx="230" cy="61.3047" fill="#84BE84" rx="3" ry="3" style="stroke:#038048;stroke-width:1.0;"/><text fill="#000000" font-family="sans-serif" font-size="14" lengthAdjust="spacing" textLength="52" x="239" y="65.5332">deliver()</text><ellipse cx="230" cy="78.9141" fill="#84BE84" rx="3" ry="3" style="stroke:#038048;stroke-width:1.0;"/><text fill="#000000" font-family="sans-serif" font-size="14" lengthAdjust="spacing" textLength="151" x="239" y="83.1426">generateCost() : double</text></g><!--class DecoratorDelivery--><g id="elem_DecoratorDelivery"><rect codeLine="12" fill="#F1F1F1" height="111.5313" id="DecoratorDelivery" rx="2.5" ry="2.5" style="stroke:#181818;stroke-width:0.5;" width="201" x="207" y="150"/><ellipse cx="246.75" cy="171.3516" fill="#ADD1B2" rx="11" ry="11" style="stroke:#181818;stroke-width:1.0;"/><path d="M249.5156,167.2266 Q249.6719,167.0078 249.8594,166.8984 Q250.0469,166.7891 250.2656,166.7891 Q250.6406,166.7891 250.875,167.0547 Q251.1094,167.3047 251.1094,167.9141 L251.1094,169.3672 Q251.1094,169.9766 250.875,170.2422 Q250.6406,170.5078 250.2656,170.5078 Q249.9219,170.5078 249.7188,170.3047 Q249.5156,170.1172 249.4063,169.6016 Q249.3594,169.2422 249.1719,169.0547 Q248.8438,168.6797 248.2344,168.4609 Q247.625,168.2422 247,168.2422 Q246.2344,168.2422 245.5938,168.5703 Q244.9688,168.8984 244.4688,169.6484 Q243.9844,170.3984 243.9844,171.4297 L243.9844,172.5234 Q243.9844,173.7578 244.875,174.5859 Q245.7656,175.3984 247.3594,175.3984 Q248.2969,175.3984 248.9531,175.1484 Q249.3438,174.9922 249.7656,174.5547 Q250.0313,174.2891 250.1719,174.2109 Q250.3281,174.1328 250.5313,174.1328 Q250.8594,174.1328 251.1094,174.3984 Q251.375,174.6484 251.375,174.9922 Q251.375,175.3359 251.0313,175.7422 Q250.5313,176.3203 249.7344,176.6484 Q248.6563,177.1016 247.3594,177.1016 Q245.8438,177.1016 244.6406,176.4766 Q243.6563,175.9766 242.9688,174.9141 Q242.2813,173.8359 242.2813,172.5547 L242.2813,171.3984 Q242.2813,170.0703 242.8906,168.9297 Q243.5156,167.7734 244.6094,167.1641 Q245.7031,166.5391 246.9375,166.5391 Q247.6719,166.5391 248.3125,166.7109 Q248.9688,166.8672 249.5156,167.2266 Z " fill="#000000"/><text fill="#000000" font-family="sans-serif" font-size="12" font-style="italic" lengthAdjust="spacing" textLength="58" x="294.25" y="167.457">&#171;abstract&#187;</text><text fill="#000000" font-family="sans-serif" font-size="14" lengthAdjust="spacing" textLength="114" x="266.25" y="184.627">DecoratorDelivery</text><line style="stroke:#181818;stroke-width:0.5;" x1="208" x2="407" y1="192.7031" y2="192.7031"/><polygon fill="none" points="218,202.0078,222,206.0078,218,210.0078,214,206.0078" style="stroke:#B38D22;stroke-width:1.0;"/><text fill="#000000" font-family="sans-serif" font-size="14" lengthAdjust="spacing" textLength="175" x="227" y="211.2363">deliveryDecorator : Delivery</text><line style="stroke:#181818;stroke-width:0.5;" x1="208" x2="407" y1="218.3125" y2="218.3125"/><ellipse cx="218" cy="232.6172" fill="#84BE84" rx="3" ry="3" style="stroke:#038048;stroke-width:1.0;"/><text fill="#000000" font-family="sans-serif" font-size="14" font-style="italic" lengthAdjust="spacing" textLength="51" x="227" y="236.8457">deliver()</text><ellipse cx="218" cy="250.2266" fill="#84BE84" rx="3" ry="3" style="stroke:#038048;stroke-width:1.0;"/><text fill="#000000" font-family="sans-serif" font-size="14" font-style="italic" lengthAdjust="spacing" textLength="151" x="227" y="254.4551">generateCost() : double</text></g><!--class BasicFastDeliveryWithRoute--><g id="elem_BasicFastDeliveryWithRoute"><rect codeLine="18" fill="#F1F1F1" height="100.8281" id="BasicFastDeliveryWithRoute" rx="2.5" ry="2.5" style="stroke:#181818;stroke-width:0.5;" width="211" x="87" y="322"/><ellipse cx="102" cy="338" fill="#ADD1B2" rx="11" ry="11" style="stroke:#181818;stroke-width:1.0;"/><path d="M104.7656,333.875 Q104.9219,333.6563 105.1094,333.5469 Q105.2969,333.4375 105.5156,333.4375 Q105.8906,333.4375 106.125,333.7031 Q106.3594,333.9531 106.3594,334.5625 L106.3594,336.0156 Q106.3594,336.625 106.125,336.8906 Q105.8906,337.1563 105.5156,337.1563 Q105.1719,337.1563 104.9688,336.9531 Q104.7656,336.7656 104.6563,336.25 Q104.6094,335.8906 104.4219,335.7031 Q104.0938,335.3281 103.4844,335.1094 Q102.875,334.8906 102.25,334.8906 Q101.4844,334.8906 100.8438,335.2188 Q100.2188,335.5469 99.7188,336.2969 Q99.2344,337.0469 99.2344,338.0781 L99.2344,339.1719 Q99.2344,340.4063 100.125,341.2344 Q101.0156,342.0469 102.6094,342.0469 Q103.5469,342.0469 104.2031,341.7969 Q104.5938,341.6406 105.0156,341.2031 Q105.2813,340.9375 105.4219,340.8594 Q105.5781,340.7813 105.7813,340.7813 Q106.1094,340.7813 106.3594,341.0469 Q106.625,341.2969 106.625,341.6406 Q106.625,341.9844 106.2813,342.3906 Q105.7813,342.9688 104.9844,343.2969 Q103.9063,343.75 102.6094,343.75 Q101.0938,343.75 99.8906,343.125 Q98.9063,342.625 98.2188,341.5625 Q97.5313,340.4844 97.5313,339.2031 L97.5313,338.0469 Q97.5313,336.7188 98.1406,335.5781 Q98.7656,334.4219 99.8594,333.8125 Q100.9531,333.1875 102.1875,333.1875 Q102.9219,333.1875 103.5625,333.3594 Q104.2188,333.5156 104.7656,333.875 Z " fill="#000000"/><text fill="#000000" font-family="sans-serif" font-size="14" lengthAdjust="spacing" textLength="179" x="116" y="343.7285">BasicFastDeliveryWithRoute</text><line style="stroke:#181818;stroke-width:0.5;" x1="88" x2="297" y1="354" y2="354"/><rect fill="none" height="6" style="stroke:#C82930;stroke-width:1.0;" width="6" x="95" y="365.3047"/><text fill="#000000" font-family="sans-serif" font-size="14" lengthAdjust="spacing" textLength="82" x="107" y="372.5332">route : String</text><line style="stroke:#181818;stroke-width:0.5;" x1="88" x2="297" y1="379.6094" y2="379.6094"/><ellipse cx="98" cy="393.9141" fill="#84BE84" rx="3" ry="3" style="stroke:#038048;stroke-width:1.0;"/><text fill="#000000" font-family="sans-serif" font-size="14" lengthAdjust="spacing" textLength="52" x="107" y="398.1426">deliver()</text><ellipse cx="98" cy="411.5234" fill="#84BE84" rx="3" ry="3" style="stroke:#038048;stroke-width:1.0;"/><text fill="#000000" font-family="sans-serif" font-size="14" lengthAdjust="spacing" textLength="151" x="107" y="415.752">generateCost() : double</text></g><!--class BasicProtectedDelivery--><g id="elem_BasicProtectedDelivery"><rect codeLine="24" fill="#F1F1F1" height="83.2188" id="BasicProtectedDelivery" rx="2.5" ry="2.5" style="stroke:#181818;stroke-width:0.5;" width="178" x="333.5" y="331"/><ellipse cx="348.5" cy="347" fill="#ADD1B2" rx="11" ry="11" style="stroke:#181818;stroke-width:1.0;"/><path d="M351.2656,342.875 Q351.4219,342.6563 351.6094,342.5469 Q351.7969,342.4375 352.0156,342.4375 Q352.3906,342.4375 352.625,342.7031 Q352.8594,342.9531 352.8594,343.5625 L352.8594,345.0156 Q352.8594,345.625 352.625,345.8906 Q352.3906,346.1563 352.0156,346.1563 Q351.6719,346.1563 351.4688,345.9531 Q351.2656,345.7656 351.1563,345.25 Q351.1094,344.8906 350.9219,344.7031 Q350.5938,344.3281 349.9844,344.1094 Q349.375,343.8906 348.75,343.8906 Q347.9844,343.8906 347.3438,344.2188 Q346.7188,344.5469 346.2188,345.2969 Q345.7344,346.0469 345.7344,347.0781 L345.7344,348.1719 Q345.7344,349.4063 346.625,350.2344 Q347.5156,351.0469 349.1094,351.0469 Q350.0469,351.0469 350.7031,350.7969 Q351.0938,350.6406 351.5156,350.2031 Q351.7813,349.9375 351.9219,349.8594 Q352.0781,349.7813 352.2813,349.7813 Q352.6094,349.7813 352.8594,350.0469 Q353.125,350.2969 353.125,350.6406 Q353.125,350.9844 352.7813,351.3906 Q352.2813,351.9688 351.4844,352.2969 Q350.4063,352.75 349.1094,352.75 Q347.5938,352.75 346.3906,352.125 Q345.4063,351.625 344.7188,350.5625 Q344.0313,349.4844 344.0313,348.2031 L344.0313,347.0469 Q344.0313,345.7188 344.6406,344.5781 Q345.2656,343.4219 346.3594,342.8125 Q347.4531,342.1875 348.6875,342.1875 Q349.4219,342.1875 350.0625,342.3594 Q350.7188,342.5156 351.2656,342.875 Z " fill="#000000"/><text fill="#000000" font-family="sans-serif" font-size="14" lengthAdjust="spacing" textLength="146" x="362.5" y="352.7285">BasicProtectedDelivery</text><line style="stroke:#181818;stroke-width:0.5;" x1="334.5" x2="510.5" y1="363" y2="363"/><line style="stroke:#181818;stroke-width:0.5;" x1="334.5" x2="510.5" y1="371" y2="371"/><ellipse cx="344.5" cy="385.3047" fill="#84BE84" rx="3" ry="3" style="stroke:#038048;stroke-width:1.0;"/><text fill="#000000" font-family="sans-serif" font-size="14" lengthAdjust="spacing" textLength="52" x="353.5" y="389.5332">deliver()</text><ellipse cx="344.5" cy="402.9141" fill="#84BE84" rx="3" ry="3" style="stroke:#038048;stroke-width:1.0;"/><text fill="#000000" font-family="sans-serif" font-size="14" lengthAdjust="spacing" textLength="151" x="353.5" y="407.1426">generateCost() : double</text></g><!--link BasicDelivery to Delivery--><g id="link_BasicDelivery_Delivery"><path codeLine="29" d="M184.11,48.5 C195.68,48.5 189.25,48.5 200.81,48.5 " fill="none" id="BasicDelivery-to-Delivery" style="stroke:#181818;stroke-width:1.0;stroke-dasharray:7.0,7.0;"/><polygon fill="none" points="218.81,48.5,200.81,42.5,200.81,54.5,218.81,48.5" style="stroke:#181818;stroke-width:1.0;"/></g><!--reverse link Delivery to DecoratorDelivery--><g id="link_Delivery_DecoratorDelivery"><path codeLine="30" d="M294.6783,108.3022 C293.2183,126.4722 294.37,130.21 295.24,149.8 " fill="none" id="Delivery-backto-DecoratorDelivery" style="stroke:#181818;stroke-width:1.0;stroke-dasharray:7.0,7.0;"/><polygon fill="none" points="296.12,90.36,288.6976,107.8216,300.659,108.7827,296.12,90.36" style="stroke:#181818;stroke-width:1.0;"/></g><!--link DecoratorDelivery to Delivery--><g id="link_DecoratorDelivery_Delivery"><path codeLine="31" d="M321.049,137.8135 C321.979,118.2235 321.5967,114.5086 320.0567,96.3386 " fill="none" id="DecoratorDelivery-Delivery" style="stroke:#181818;stroke-width:1.0;"/><polygon fill="none" points="320.48,149.8,324.76,143.9964,321.049,137.8135,316.769,143.6171,320.48,149.8" style="stroke:#181818;stroke-width:1.0;"/><polygon fill="#181818" points="319.55,90.36,316.3244,99.6657,319.9723,95.3421,324.2958,98.99,319.55,90.36" style="stroke:#181818;stroke-width:1.0;"/></g><!--reverse link DecoratorDelivery to BasicFastDeliveryWithRoute--><g id="link_DecoratorDelivery_BasicFastDeliveryWithRoute"><path codeLine="32" d="M258.5749,276.9812 C245.0649,296.3012 240.31,303.11 227.15,321.94 " fill="none" id="DecoratorDelivery-backto-BasicFastDeliveryWithRoute" style="stroke:#181818;stroke-width:1.0;"/><polygon fill="none" points="268.89,262.23,253.6578,273.5428,263.4919,280.4196,268.89,262.23" style="stroke:#181818;stroke-width:1.0;"/></g><!--reverse link DecoratorDelivery to BasicProtectedDelivery--><g id="link_DecoratorDelivery_BasicProtectedDelivery"><path codeLine="33" d="M356.4235,276.9823 C372.1535,299.4823 379.68,310.26 394.17,330.98 " fill="none" id="DecoratorDelivery-backto-BasicProtectedDelivery" style="stroke:#181818;stroke-width:1.0;"/><polygon fill="none" points="346.11,262.23,351.5061,280.4202,361.341,273.5445,346.11,262.23" style="stroke:#181818;stroke-width:1.0;"/></g><!--SRC=[fL7B2eCm4BpdAnPwKKhy014FhVHSsaFFCQus80QIjI3glrTy8eA5cjjcTcTdPcKkh8MBi4f6cAiFcWfg1jqxGp9yEEvOPrYW4OHNRSbnmOT4bt6Eh6LC5OGc5HBX28linKGeTTUWpKmL121YIqP8WZ0SY4yJSJNtTrpJoBYhdiRQHGPiiP-I-dnkmjB4_rBqVkYISBJ9mVIL3qyogiZ-zTulkXjDA0cJ8rakuJLUZYcjRxo2lMtaR7i4pNa8EtZGSBuJrEx4nZ5ZNm00]--></g></svg>