<?xml version="1.0" encoding="us-ascii" standalone="no"?><svg xmlns="http://www.w3.org/2000/svg" xmlns:xlink="http://www.w3.org/1999/xlink" contentStyleType="text/css" height="321px" preserveAspectRatio="none" style="width:757px;height:321px;background:#FFFFFF;" version="1.1" viewBox="0 0 757 321" width="757px" zoomAndPan="magnify"><defs/><g><!--class Rolepropotype--><g id="elem_Rolepropotype"><rect codeLine="2" fill="#F1F1F1" height="129.1406" id="Rolepropotype" rx="2.5" ry="2.5" style="stroke:#181818;stroke-width:0.5;" width="175" x="217" y="7"/><ellipse cx="254.5" cy="28.3516" fill="#ADD1B2" rx="11" ry="11" style="stroke:#181818;stroke-width:1.0;"/><path d="M257.2656,24.2266 Q257.4219,24.0078 257.6094,23.8984 Q257.7969,23.7891 258.0156,23.7891 Q258.3906,23.7891 258.625,24.0547 Q258.8594,24.3047 258.8594,24.9141 L258.8594,26.3672 Q258.8594,26.9766 258.625,27.2422 Q258.3906,27.5078 258.0156,27.5078 Q257.6719,27.5078 257.4688,27.3047 Q257.2656,27.1172 257.1563,26.6016 Q257.1094,26.2422 256.9219,26.0547 Q256.5938,25.6797 255.9844,25.4609 Q255.375,25.2422 254.75,25.2422 Q253.9844,25.2422 253.3438,25.5703 Q252.7188,25.8984 252.2188,26.6484 Q251.7344,27.3984 251.7344,28.4297 L251.7344,29.5234 Q251.7344,30.7578 252.625,31.5859 Q253.5156,32.3984 255.1094,32.3984 Q256.0469,32.3984 256.7031,32.1484 Q257.0938,31.9922 257.5156,31.5547 Q257.7813,31.2891 257.9219,31.2109 Q258.0781,31.1328 258.2813,31.1328 Q258.6094,31.1328 258.8594,31.3984 Q259.125,31.6484 259.125,31.9922 Q259.125,32.3359 258.7813,32.7422 Q258.2813,33.3203 257.4844,33.6484 Q256.4063,34.1016 255.1094,34.1016 Q253.5938,34.1016 252.3906,33.4766 Q251.4063,32.9766 250.7188,31.9141 Q250.0313,30.8359 250.0313,29.5547 L250.0313,28.3984 Q250.0313,27.0703 250.6406,25.9297 Q251.2656,24.7734 252.3594,24.1641 Q253.4531,23.5391 254.6875,23.5391 Q255.4219,23.5391 256.0625,23.7109 Q256.7188,23.8672 257.2656,24.2266 Z " fill="#000000"/><text fill="#000000" font-family="sans-serif" font-size="12" font-style="italic" lengthAdjust="spacing" textLength="58" x="291" y="24.457">&#171;abstract&#187;</text><text fill="#000000" font-family="sans-serif" font-size="14" lengthAdjust="spacing" textLength="93" x="273.5" y="41.627">Rolepropotype</text><line style="stroke:#181818;stroke-width:0.5;" x1="218" x2="391" y1="49.7031" y2="49.7031"/><polygon fill="none" points="228,59.0078,232,63.0078,228,67.0078,224,63.0078" style="stroke:#B38D22;stroke-width:1.0;"/><text fill="#000000" font-family="sans-serif" font-size="14" lengthAdjust="spacing" textLength="101" x="237" y="68.2363">roleType: String</text><line style="stroke:#181818;stroke-width:0.5;" x1="218" x2="391" y1="75.3125" y2="75.3125"/><ellipse cx="228" cy="89.6172" fill="#84BE84" rx="3" ry="3" style="stroke:#038048;stroke-width:1.0;"/><text fill="#000000" font-family="sans-serif" font-size="14" lengthAdjust="spacing" textLength="140" x="237" y="93.8457">getRoleType() : String</text><ellipse cx="228" cy="107.2266" fill="#84BE84" rx="3" ry="3" style="stroke:#038048;stroke-width:1.0;"/><text fill="#000000" font-family="sans-serif" font-size="14" lengthAdjust="spacing" textLength="127" x="237" y="111.4551">setRoleType(String)</text><ellipse cx="228" cy="124.8359" fill="#84BE84" rx="3" ry="3" style="stroke:#038048;stroke-width:1.0;"/><text fill="#000000" font-family="sans-serif" font-size="14" font-style="italic" lengthAdjust="spacing" textLength="149" x="237" y="129.0645">clone() : Rolepropotype</text></g><!--class Sniper--><g id="elem_Sniper"><rect codeLine="9" fill="#F1F1F1" height="118.4375" id="Sniper" rx="2.5" ry="2.5" style="stroke:#181818;stroke-width:0.5;" width="175" x="217" y="196"/><ellipse cx="279.75" cy="212" fill="#ADD1B2" rx="11" ry="11" style="stroke:#181818;stroke-width:1.0;"/><path d="M282.5156,207.875 Q282.6719,207.6563 282.8594,207.5469 Q283.0469,207.4375 283.2656,207.4375 Q283.6406,207.4375 283.875,207.7031 Q284.1094,207.9531 284.1094,208.5625 L284.1094,210.0156 Q284.1094,210.625 283.875,210.8906 Q283.6406,211.1563 283.2656,211.1563 Q282.9219,211.1563 282.7188,210.9531 Q282.5156,210.7656 282.4063,210.25 Q282.3594,209.8906 282.1719,209.7031 Q281.8438,209.3281 281.2344,209.1094 Q280.625,208.8906 280,208.8906 Q279.2344,208.8906 278.5938,209.2188 Q277.9688,209.5469 277.4688,210.2969 Q276.9844,211.0469 276.9844,212.0781 L276.9844,213.1719 Q276.9844,214.4063 277.875,215.2344 Q278.7656,216.0469 280.3594,216.0469 Q281.2969,216.0469 281.9531,215.7969 Q282.3438,215.6406 282.7656,215.2031 Q283.0313,214.9375 283.1719,214.8594 Q283.3281,214.7813 283.5313,214.7813 Q283.8594,214.7813 284.1094,215.0469 Q284.375,215.2969 284.375,215.6406 Q284.375,215.9844 284.0313,216.3906 Q283.5313,216.9688 282.7344,217.2969 Q281.6563,217.75 280.3594,217.75 Q278.8438,217.75 277.6406,217.125 Q276.6563,216.625 275.9688,215.5625 Q275.2813,214.4844 275.2813,213.2031 L275.2813,212.0469 Q275.2813,210.7188 275.8906,209.5781 Q276.5156,208.4219 277.6094,207.8125 Q278.7031,207.1875 279.9375,207.1875 Q280.6719,207.1875 281.3125,207.3594 Q281.9688,207.5156 282.5156,207.875 Z " fill="#000000"/><text fill="#000000" font-family="sans-serif" font-size="14" lengthAdjust="spacing" textLength="41" x="300.25" y="217.7285">Sniper</text><line style="stroke:#181818;stroke-width:0.5;" x1="218" x2="391" y1="228" y2="228"/><rect fill="none" height="6" style="stroke:#C82930;stroke-width:1.0;" width="6" x="225" y="239.3047"/><text fill="#000000" font-family="sans-serif" font-size="14" lengthAdjust="spacing" textLength="83" x="237" y="246.5332">scope: String</text><line style="stroke:#181818;stroke-width:0.5;" x1="218" x2="391" y1="253.6094" y2="253.6094"/><ellipse cx="228" cy="267.9141" fill="#84BE84" rx="3" ry="3" style="stroke:#038048;stroke-width:1.0;"/><text fill="#000000" font-family="sans-serif" font-size="14" lengthAdjust="spacing" textLength="119" x="237" y="272.1426">getScope() : String</text><ellipse cx="228" cy="285.5234" fill="#84BE84" rx="3" ry="3" style="stroke:#038048;stroke-width:1.0;"/><text fill="#000000" font-family="sans-serif" font-size="14" lengthAdjust="spacing" textLength="106" x="237" y="289.752">setScope(String)</text><ellipse cx="228" cy="303.1328" fill="#84BE84" rx="3" ry="3" style="stroke:#038048;stroke-width:1.0;"/><text fill="#000000" font-family="sans-serif" font-size="14" lengthAdjust="spacing" textLength="149" x="237" y="307.3613">clone() : Rolepropotype</text></g><!--class Marine--><g id="elem_Marine"><rect codeLine="16" fill="#F1F1F1" height="118.4375" id="Marine" rx="2.5" ry="2.5" style="stroke:#181818;stroke-width:0.5;" width="175" x="7" y="12.5"/><ellipse cx="68.75" cy="28.5" fill="#ADD1B2" rx="11" ry="11" style="stroke:#181818;stroke-width:1.0;"/><path d="M71.5156,24.375 Q71.6719,24.1563 71.8594,24.0469 Q72.0469,23.9375 72.2656,23.9375 Q72.6406,23.9375 72.875,24.2031 Q73.1094,24.4531 73.1094,25.0625 L73.1094,26.5156 Q73.1094,27.125 72.875,27.3906 Q72.6406,27.6563 72.2656,27.6563 Q71.9219,27.6563 71.7188,27.4531 Q71.5156,27.2656 71.4063,26.75 Q71.3594,26.3906 71.1719,26.2031 Q70.8438,25.8281 70.2344,25.6094 Q69.625,25.3906 69,25.3906 Q68.2344,25.3906 67.5938,25.7188 Q66.9688,26.0469 66.4688,26.7969 Q65.9844,27.5469 65.9844,28.5781 L65.9844,29.6719 Q65.9844,30.9063 66.875,31.7344 Q67.7656,32.5469 69.3594,32.5469 Q70.2969,32.5469 70.9531,32.2969 Q71.3438,32.1406 71.7656,31.7031 Q72.0313,31.4375 72.1719,31.3594 Q72.3281,31.2813 72.5313,31.2813 Q72.8594,31.2813 73.1094,31.5469 Q73.375,31.7969 73.375,32.1406 Q73.375,32.4844 73.0313,32.8906 Q72.5313,33.4688 71.7344,33.7969 Q70.6563,34.25 69.3594,34.25 Q67.8438,34.25 66.6406,33.625 Q65.6563,33.125 64.9688,32.0625 Q64.2813,30.9844 64.2813,29.7031 L64.2813,28.5469 Q64.2813,27.2188 64.8906,26.0781 Q65.5156,24.9219 66.6094,24.3125 Q67.7031,23.6875 68.9375,23.6875 Q69.6719,23.6875 70.3125,23.8594 Q70.9688,24.0156 71.5156,24.375 Z " fill="#000000"/><text fill="#000000" font-family="sans-serif" font-size="14" lengthAdjust="spacing" textLength="43" x="89.25" y="34.2285">Marine</text><line style="stroke:#181818;stroke-width:0.5;" x1="8" x2="181" y1="44.5" y2="44.5"/><rect fill="none" height="6" style="stroke:#C82930;stroke-width:1.0;" width="6" x="15" y="55.8047"/><text fill="#000000" font-family="sans-serif" font-size="14" lengthAdjust="spacing" textLength="71" x="27" y="63.0332">ship: String</text><line style="stroke:#181818;stroke-width:0.5;" x1="8" x2="181" y1="70.1094" y2="70.1094"/><ellipse cx="18" cy="84.4141" fill="#84BE84" rx="3" ry="3" style="stroke:#038048;stroke-width:1.0;"/><text fill="#000000" font-family="sans-serif" font-size="14" lengthAdjust="spacing" textLength="107" x="27" y="88.6426">getShip() : String</text><ellipse cx="18" cy="102.0234" fill="#84BE84" rx="3" ry="3" style="stroke:#038048;stroke-width:1.0;"/><text fill="#000000" font-family="sans-serif" font-size="14" lengthAdjust="spacing" textLength="94" x="27" y="106.252">setShip(String)</text><ellipse cx="18" cy="119.6328" fill="#84BE84" rx="3" ry="3" style="stroke:#038048;stroke-width:1.0;"/><text fill="#000000" font-family="sans-serif" font-size="14" lengthAdjust="spacing" textLength="149" x="27" y="123.8613">clone() : Rolepropotype</text></g><!--class Client--><g id="elem_Client"><rect codeLine="23" fill="#F1F1F1" height="83.2188" id="Client" rx="2.5" ry="2.5" style="stroke:#181818;stroke-width:0.5;" width="323" x="427" y="30"/><ellipse cx="566.25" cy="46" fill="#ADD1B2" rx="11" ry="11" style="stroke:#181818;stroke-width:1.0;"/><path d="M569.0156,41.875 Q569.1719,41.6563 569.3594,41.5469 Q569.5469,41.4375 569.7656,41.4375 Q570.1406,41.4375 570.375,41.7031 Q570.6094,41.9531 570.6094,42.5625 L570.6094,44.0156 Q570.6094,44.625 570.375,44.8906 Q570.1406,45.1563 569.7656,45.1563 Q569.4219,45.1563 569.2188,44.9531 Q569.0156,44.7656 568.9063,44.25 Q568.8594,43.8906 568.6719,43.7031 Q568.3438,43.3281 567.7344,43.1094 Q567.125,42.8906 566.5,42.8906 Q565.7344,42.8906 565.0938,43.2188 Q564.4688,43.5469 563.9688,44.2969 Q563.4844,45.0469 563.4844,46.0781 L563.4844,47.1719 Q563.4844,48.4063 564.375,49.2344 Q565.2656,50.0469 566.8594,50.0469 Q567.7969,50.0469 568.4531,49.7969 Q568.8438,49.6406 569.2656,49.2031 Q569.5313,48.9375 569.6719,48.8594 Q569.8281,48.7813 570.0313,48.7813 Q570.3594,48.7813 570.6094,49.0469 Q570.875,49.2969 570.875,49.6406 Q570.875,49.9844 570.5313,50.3906 Q570.0313,50.9688 569.2344,51.2969 Q568.1563,51.75 566.8594,51.75 Q565.3438,51.75 564.1406,51.125 Q563.1563,50.625 562.4688,49.5625 Q561.7813,48.4844 561.7813,47.2031 L561.7813,46.0469 Q561.7813,44.7188 562.3906,43.5781 Q563.0156,42.4219 564.1094,41.8125 Q565.2031,41.1875 566.4375,41.1875 Q567.1719,41.1875 567.8125,41.3594 Q568.4688,41.5156 569.0156,41.875 Z " fill="#000000"/><text fill="#000000" font-family="sans-serif" font-size="14" lengthAdjust="spacing" textLength="36" x="586.75" y="51.7285">Client</text><line style="stroke:#181818;stroke-width:0.5;" x1="428" x2="749" y1="62" y2="62"/><line style="stroke:#181818;stroke-width:0.5;" x1="428" x2="749" y1="70" y2="70"/><ellipse cx="438" cy="84.3047" fill="#84BE84" rx="3" ry="3" style="stroke:#038048;stroke-width:1.0;"/><text fill="#000000" font-family="sans-serif" font-size="14" lengthAdjust="spacing" textLength="217" x="447" y="88.5332">setRolType(RolePrototype, String)</text><ellipse cx="438" cy="101.9141" fill="#84BE84" rx="3" ry="3" style="stroke:#038048;stroke-width:1.0;"/><text fill="#000000" font-family="sans-serif" font-size="14" lengthAdjust="spacing" textLength="297" x="447" y="106.1426">createNewRole(RolePrototype) : RolePrototype</text></g><!--reverse link Rolepropotype to Sniper--><g id="link_Rolepropotype_Sniper"><path codeLine="28" d="M304.5,154.23 C304.5,173.64 304.5,176.86 304.5,195.88 " fill="none" id="Rolepropotype-backto-Sniper" style="stroke:#181818;stroke-width:1.0;"/><polygon fill="none" points="304.5,136.23,298.5,154.23,310.5,154.23,304.5,136.23" style="stroke:#181818;stroke-width:1.0;"/></g><!--link Marine to Rolepropotype--><g id="link_Marine_Rolepropotype"><path codeLine="29" d="M182.27,71.5 C193.73,71.5 187.19,71.5 198.65,71.5 " fill="none" id="Marine-to-Rolepropotype" style="stroke:#181818;stroke-width:1.0;"/><polygon fill="none" points="216.65,71.5,198.65,65.5,198.65,77.5,216.65,71.5" style="stroke:#181818;stroke-width:1.0;"/></g><!--reverse link Rolepropotype to Client--><g id="link_Rolepropotype_Client"><path codeLine="32" d="M398.14,71.5 C409.65,71.5 415.15,71.5 426.66,71.5 " fill="none" id="Rolepropotype-backto-Client" style="stroke:#181818;stroke-width:1.0;stroke-dasharray:7.0,7.0;"/><polygon fill="#181818" points="392.14,71.5,401.14,75.5,397.14,71.5,401.14,67.5,392.14,71.5" style="stroke:#181818;stroke-width:1.0;"/></g><!--SRC=[bP513e8m44NtFSKaRYGA1p24ZMkD0IzGcr596jgqanY3tDqMYaebCRByRuRt6OJaraAf96gZjAAxHiXpVh9akA2YW9Q1UnPWtCZHqGrKPEhcqiShk22LWImJYA3zW0D80cb7GmT2gcROdRHW7MEYBrSrjKOJYgHWXPfhKVbuji90flwVqXrtu_YMNcizutJflDA3FurRMMD3mJZUhZ-TNpWOHVt26gBt6kI4UxpvgUdeA7i5NXRzwaUQXWD_4ubd2eTWZ8L-cK-p8lgA9m00]--></g></svg>