<?xml version="1.0" encoding="us-ascii" standalone="no"?><svg xmlns="http://www.w3.org/2000/svg" xmlns:xlink="http://www.w3.org/1999/xlink" contentStyleType="text/css" height="836px" preserveAspectRatio="none" style="width:1084px;height:836px;background:#FFFFFF;" version="1.1" viewBox="0 0 1084 836" width="1084px" zoomAndPan="magnify"><defs/><g><!--class BasicDelivery--><g id="elem_BasicDelivery"><rect codeLine="2" fill="#F1F1F1" height="100.8281" id="BasicDelivery" rx="2.5" ry="2.5" style="stroke:#181818;stroke-width:0.5;" width="177" x="456.5" y="51"/><ellipse cx="498.5" cy="67" fill="#ADD1B2" rx="11" ry="11" style="stroke:#181818;stroke-width:1.0;"/><path d="M501.2656,62.875 Q501.4219,62.6563 501.6094,62.5469 Q501.7969,62.4375 502.0156,62.4375 Q502.3906,62.4375 502.625,62.7031 Q502.8594,62.9531 502.8594,63.5625 L502.8594,65.0156 Q502.8594,65.625 502.625,65.8906 Q502.3906,66.1563 502.0156,66.1563 Q501.6719,66.1563 501.4688,65.9531 Q501.2656,65.7656 501.1563,65.25 Q501.1094,64.8906 500.9219,64.7031 Q500.5938,64.3281 499.9844,64.1094 Q499.375,63.8906 498.75,63.8906 Q497.9844,63.8906 497.3438,64.2188 Q496.7188,64.5469 496.2188,65.2969 Q495.7344,66.0469 495.7344,67.0781 L495.7344,68.1719 Q495.7344,69.4063 496.625,70.2344 Q497.5156,71.0469 499.1094,71.0469 Q500.0469,71.0469 500.7031,70.7969 Q501.0938,70.6406 501.5156,70.2031 Q501.7813,69.9375 501.9219,69.8594 Q502.0781,69.7813 502.2813,69.7813 Q502.6094,69.7813 502.8594,70.0469 Q503.125,70.2969 503.125,70.6406 Q503.125,70.9844 502.7813,71.3906 Q502.2813,71.9688 501.4844,72.2969 Q500.4063,72.75 499.1094,72.75 Q497.5938,72.75 496.3906,72.125 Q495.4063,71.625 494.7188,70.5625 Q494.0313,69.4844 494.0313,68.2031 L494.0313,67.0469 Q494.0313,65.7188 494.6406,64.5781 Q495.2656,63.4219 496.3594,62.8125 Q497.4531,62.1875 498.6875,62.1875 Q499.4219,62.1875 500.0625,62.3594 Q500.7188,62.5156 501.2656,62.875 Z " fill="#000000"/><text fill="#000000" font-family="sans-serif" font-size="14" lengthAdjust="spacing" textLength="85" x="518.5" y="72.7285">BasicDelivery</text><line style="stroke:#181818;stroke-width:0.5;" x1="457.5" x2="632.5" y1="83" y2="83"/><polygon fill="none" points="467.5,92.3047,471.5,96.3047,467.5,100.3047,463.5,96.3047" style="stroke:#B38D22;stroke-width:1.0;"/><text fill="#000000" font-family="sans-serif" font-size="14" lengthAdjust="spacing" textLength="122" x="476.5" y="101.5332">mediator : Mediator</text><line style="stroke:#181818;stroke-width:0.5;" x1="457.5" x2="632.5" y1="108.6094" y2="108.6094"/><ellipse cx="467.5" cy="122.9141" fill="#84BE84" rx="3" ry="3" style="stroke:#038048;stroke-width:1.0;"/><text fill="#000000" font-family="sans-serif" font-size="14" lengthAdjust="spacing" textLength="135" x="476.5" y="127.1426">deliver(String deliver)</text><ellipse cx="467.5" cy="140.5234" fill="#84BE84" rx="3" ry="3" style="stroke:#038048;stroke-width:1.0;"/><text fill="#000000" font-family="sans-serif" font-size="14" lengthAdjust="spacing" textLength="151" x="476.5" y="144.752">generateCost() : double</text></g><!--class Delivery--><g id="elem_Delivery"><rect codeLine="8" fill="#F1F1F1" height="83.2188" id="Delivery" rx="2.5" ry="2.5" style="stroke:#181818;stroke-width:0.5;" width="177" x="669.5" y="60"/><ellipse cx="728.75" cy="76" fill="#B4A7E5" rx="11" ry="11" style="stroke:#181818;stroke-width:1.0;"/><path d="M729.7031,72.6406 L729.7031,79.2969 L731.4219,79.2969 Q732.0313,79.2969 732.2969,79.5313 Q732.5625,79.7656 732.5625,80.1563 Q732.5625,80.5313 732.2969,80.7656 Q732.0313,81 731.4219,81 L726.2813,81 Q725.6719,81 725.4063,80.7656 Q725.1406,80.5313 725.1406,80.1406 Q725.1406,79.7656 725.4063,79.5313 Q725.6719,79.2969 726.2813,79.2969 L728,79.2969 L728,72.6406 L726.2813,72.6406 Q725.6719,72.6406 725.4063,72.4063 Q725.1406,72.1719 725.1406,71.7813 Q725.1406,71.4063 725.4063,71.1719 Q725.6719,70.9375 726.2813,70.9375 L731.4219,70.9375 Q732.0313,70.9375 732.2969,71.1719 Q732.5625,71.4063 732.5625,71.7813 Q732.5625,72.1719 732.2969,72.4063 Q732.0313,72.6406 731.4219,72.6406 L729.7031,72.6406 Z " fill="#000000"/><text fill="#000000" font-family="sans-serif" font-size="14" font-style="italic" lengthAdjust="spacing" textLength="50" x="749.25" y="81.7285">Delivery</text><line style="stroke:#181818;stroke-width:0.5;" x1="670.5" x2="845.5" y1="92" y2="92"/><line style="stroke:#181818;stroke-width:0.5;" x1="670.5" x2="845.5" y1="100" y2="100"/><ellipse cx="680.5" cy="114.3047" fill="#84BE84" rx="3" ry="3" style="stroke:#038048;stroke-width:1.0;"/><text fill="#000000" font-family="sans-serif" font-size="14" lengthAdjust="spacing" textLength="135" x="689.5" y="118.5332">deliver(String deliver)</text><ellipse cx="680.5" cy="131.9141" fill="#84BE84" rx="3" ry="3" style="stroke:#038048;stroke-width:1.0;"/><text fill="#000000" font-family="sans-serif" font-size="14" lengthAdjust="spacing" textLength="151" x="689.5" y="136.1426">generateCost() : double</text></g><!--class DecoratorDelivery--><g id="elem_DecoratorDelivery"><rect codeLine="13" fill="#F1F1F1" height="111.5313" id="DecoratorDelivery" rx="2.5" ry="2.5" style="stroke:#181818;stroke-width:0.5;" width="201" x="657.5" y="329.5"/><ellipse cx="697.25" cy="350.8516" fill="#ADD1B2" rx="11" ry="11" style="stroke:#181818;stroke-width:1.0;"/><path d="M700.0156,346.7266 Q700.1719,346.5078 700.3594,346.3984 Q700.5469,346.2891 700.7656,346.2891 Q701.1406,346.2891 701.375,346.5547 Q701.6094,346.8047 701.6094,347.4141 L701.6094,348.8672 Q701.6094,349.4766 701.375,349.7422 Q701.1406,350.0078 700.7656,350.0078 Q700.4219,350.0078 700.2188,349.8047 Q700.0156,349.6172 699.9063,349.1016 Q699.8594,348.7422 699.6719,348.5547 Q699.3438,348.1797 698.7344,347.9609 Q698.125,347.7422 697.5,347.7422 Q696.7344,347.7422 696.0938,348.0703 Q695.4688,348.3984 694.9688,349.1484 Q694.4844,349.8984 694.4844,350.9297 L694.4844,352.0234 Q694.4844,353.2578 695.375,354.0859 Q696.2656,354.8984 697.8594,354.8984 Q698.7969,354.8984 699.4531,354.6484 Q699.8438,354.4922 700.2656,354.0547 Q700.5313,353.7891 700.6719,353.7109 Q700.8281,353.6328 701.0313,353.6328 Q701.3594,353.6328 701.6094,353.8984 Q701.875,354.1484 701.875,354.4922 Q701.875,354.8359 701.5313,355.2422 Q701.0313,355.8203 700.2344,356.1484 Q699.1563,356.6016 697.8594,356.6016 Q696.3438,356.6016 695.1406,355.9766 Q694.1563,355.4766 693.4688,354.4141 Q692.7813,353.3359 692.7813,352.0547 L692.7813,350.8984 Q692.7813,349.5703 693.3906,348.4297 Q694.0156,347.2734 695.1094,346.6641 Q696.2031,346.0391 697.4375,346.0391 Q698.1719,346.0391 698.8125,346.2109 Q699.4688,346.3672 700.0156,346.7266 Z " fill="#000000"/><text fill="#000000" font-family="sans-serif" font-size="12" font-style="italic" lengthAdjust="spacing" textLength="58" x="744.75" y="346.957">&#171;abstract&#187;</text><text fill="#000000" font-family="sans-serif" font-size="14" lengthAdjust="spacing" textLength="114" x="716.75" y="364.127">DecoratorDelivery</text><line style="stroke:#181818;stroke-width:0.5;" x1="658.5" x2="857.5" y1="372.2031" y2="372.2031"/><polygon fill="none" points="668.5,381.5078,672.5,385.5078,668.5,389.5078,664.5,385.5078" style="stroke:#B38D22;stroke-width:1.0;"/><text fill="#000000" font-family="sans-serif" font-size="14" lengthAdjust="spacing" textLength="175" x="677.5" y="390.7363">deliveryDecorator : Delivery</text><line style="stroke:#181818;stroke-width:0.5;" x1="658.5" x2="857.5" y1="397.8125" y2="397.8125"/><ellipse cx="668.5" cy="412.1172" fill="#84BE84" rx="3" ry="3" style="stroke:#038048;stroke-width:1.0;"/><text fill="#000000" font-family="sans-serif" font-size="14" font-style="italic" lengthAdjust="spacing" textLength="133" x="677.5" y="416.3457">deliver(String deliver)</text><ellipse cx="668.5" cy="429.7266" fill="#84BE84" rx="3" ry="3" style="stroke:#038048;stroke-width:1.0;"/><text fill="#000000" font-family="sans-serif" font-size="14" font-style="italic" lengthAdjust="spacing" textLength="151" x="677.5" y="433.9551">generateCost() : double</text></g><!--class BasicFastDeliveryWithRoute--><g id="elem_BasicFastDeliveryWithRoute"><rect codeLine="19" fill="#F1F1F1" height="100.8281" id="BasicFastDeliveryWithRoute" rx="2.5" ry="2.5" style="stroke:#181818;stroke-width:0.5;" width="211" x="652.5" y="575"/><ellipse cx="667.5" cy="591" fill="#ADD1B2" rx="11" ry="11" style="stroke:#181818;stroke-width:1.0;"/><path d="M670.2656,586.875 Q670.4219,586.6563 670.6094,586.5469 Q670.7969,586.4375 671.0156,586.4375 Q671.3906,586.4375 671.625,586.7031 Q671.8594,586.9531 671.8594,587.5625 L671.8594,589.0156 Q671.8594,589.625 671.625,589.8906 Q671.3906,590.1563 671.0156,590.1563 Q670.6719,590.1563 670.4688,589.9531 Q670.2656,589.7656 670.1563,589.25 Q670.1094,588.8906 669.9219,588.7031 Q669.5938,588.3281 668.9844,588.1094 Q668.375,587.8906 667.75,587.8906 Q666.9844,587.8906 666.3438,588.2188 Q665.7188,588.5469 665.2188,589.2969 Q664.7344,590.0469 664.7344,591.0781 L664.7344,592.1719 Q664.7344,593.4063 665.625,594.2344 Q666.5156,595.0469 668.1094,595.0469 Q669.0469,595.0469 669.7031,594.7969 Q670.0938,594.6406 670.5156,594.2031 Q670.7813,593.9375 670.9219,593.8594 Q671.0781,593.7813 671.2813,593.7813 Q671.6094,593.7813 671.8594,594.0469 Q672.125,594.2969 672.125,594.6406 Q672.125,594.9844 671.7813,595.3906 Q671.2813,595.9688 670.4844,596.2969 Q669.4063,596.75 668.1094,596.75 Q666.5938,596.75 665.3906,596.125 Q664.4063,595.625 663.7188,594.5625 Q663.0313,593.4844 663.0313,592.2031 L663.0313,591.0469 Q663.0313,589.7188 663.6406,588.5781 Q664.2656,587.4219 665.3594,586.8125 Q666.4531,586.1875 667.6875,586.1875 Q668.4219,586.1875 669.0625,586.3594 Q669.7188,586.5156 670.2656,586.875 Z " fill="#000000"/><text fill="#000000" font-family="sans-serif" font-size="14" lengthAdjust="spacing" textLength="179" x="681.5" y="596.7285">BasicFastDeliveryWithRoute</text><line style="stroke:#181818;stroke-width:0.5;" x1="653.5" x2="862.5" y1="607" y2="607"/><rect fill="none" height="6" style="stroke:#C82930;stroke-width:1.0;" width="6" x="660.5" y="618.3047"/><text fill="#000000" font-family="sans-serif" font-size="14" lengthAdjust="spacing" textLength="82" x="672.5" y="625.5332">route : String</text><line style="stroke:#181818;stroke-width:0.5;" x1="653.5" x2="862.5" y1="632.6094" y2="632.6094"/><ellipse cx="663.5" cy="646.9141" fill="#84BE84" rx="3" ry="3" style="stroke:#038048;stroke-width:1.0;"/><text fill="#000000" font-family="sans-serif" font-size="14" lengthAdjust="spacing" textLength="135" x="672.5" y="651.1426">deliver(String deliver)</text><ellipse cx="663.5" cy="664.5234" fill="#84BE84" rx="3" ry="3" style="stroke:#038048;stroke-width:1.0;"/><text fill="#000000" font-family="sans-serif" font-size="14" lengthAdjust="spacing" textLength="151" x="672.5" y="668.752">generateCost() : double</text></g><!--class BasicProtectedDelivery--><g id="elem_BasicProtectedDelivery"><rect codeLine="25" fill="#F1F1F1" height="83.2188" id="BasicProtectedDelivery" rx="2.5" ry="2.5" style="stroke:#181818;stroke-width:0.5;" width="178" x="899" y="584"/><ellipse cx="914" cy="600" fill="#ADD1B2" rx="11" ry="11" style="stroke:#181818;stroke-width:1.0;"/><path d="M916.7656,595.875 Q916.9219,595.6563 917.1094,595.5469 Q917.2969,595.4375 917.5156,595.4375 Q917.8906,595.4375 918.125,595.7031 Q918.3594,595.9531 918.3594,596.5625 L918.3594,598.0156 Q918.3594,598.625 918.125,598.8906 Q917.8906,599.1563 917.5156,599.1563 Q917.1719,599.1563 916.9688,598.9531 Q916.7656,598.7656 916.6563,598.25 Q916.6094,597.8906 916.4219,597.7031 Q916.0938,597.3281 915.4844,597.1094 Q914.875,596.8906 914.25,596.8906 Q913.4844,596.8906 912.8438,597.2188 Q912.2188,597.5469 911.7188,598.2969 Q911.2344,599.0469 911.2344,600.0781 L911.2344,601.1719 Q911.2344,602.4063 912.125,603.2344 Q913.0156,604.0469 914.6094,604.0469 Q915.5469,604.0469 916.2031,603.7969 Q916.5938,603.6406 917.0156,603.2031 Q917.2813,602.9375 917.4219,602.8594 Q917.5781,602.7813 917.7813,602.7813 Q918.1094,602.7813 918.3594,603.0469 Q918.625,603.2969 918.625,603.6406 Q918.625,603.9844 918.2813,604.3906 Q917.7813,604.9688 916.9844,605.2969 Q915.9063,605.75 914.6094,605.75 Q913.0938,605.75 911.8906,605.125 Q910.9063,604.625 910.2188,603.5625 Q909.5313,602.4844 909.5313,601.2031 L909.5313,600.0469 Q909.5313,598.7188 910.1406,597.5781 Q910.7656,596.4219 911.8594,595.8125 Q912.9531,595.1875 914.1875,595.1875 Q914.9219,595.1875 915.5625,595.3594 Q916.2188,595.5156 916.7656,595.875 Z " fill="#000000"/><text fill="#000000" font-family="sans-serif" font-size="14" lengthAdjust="spacing" textLength="146" x="928" y="605.7285">BasicProtectedDelivery</text><line style="stroke:#181818;stroke-width:0.5;" x1="900" x2="1076" y1="616" y2="616"/><line style="stroke:#181818;stroke-width:0.5;" x1="900" x2="1076" y1="624" y2="624"/><ellipse cx="910" cy="638.3047" fill="#84BE84" rx="3" ry="3" style="stroke:#038048;stroke-width:1.0;"/><text fill="#000000" font-family="sans-serif" font-size="14" lengthAdjust="spacing" textLength="135" x="919" y="642.5332">deliver(String deliver)</text><ellipse cx="910" cy="655.9141" fill="#84BE84" rx="3" ry="3" style="stroke:#038048;stroke-width:1.0;"/><text fill="#000000" font-family="sans-serif" font-size="14" lengthAdjust="spacing" textLength="151" x="919" y="660.1426">generateCost() : double</text></g><!--class Colleague--><g id="elem_Colleague"><rect codeLine="30" fill="#F1F1F1" height="93.9219" id="Colleague" rx="2.5" ry="2.5" style="stroke:#181818;stroke-width:0.5;" width="180" x="222" y="736"/><ellipse cx="275.75" cy="757.3516" fill="#ADD1B2" rx="11" ry="11" style="stroke:#181818;stroke-width:1.0;"/><path d="M278.5156,753.2266 Q278.6719,753.0078 278.8594,752.8984 Q279.0469,752.7891 279.2656,752.7891 Q279.6406,752.7891 279.875,753.0547 Q280.1094,753.3047 280.1094,753.9141 L280.1094,755.3672 Q280.1094,755.9766 279.875,756.2422 Q279.6406,756.5078 279.2656,756.5078 Q278.9219,756.5078 278.7188,756.3047 Q278.5156,756.1172 278.4063,755.6016 Q278.3594,755.2422 278.1719,755.0547 Q277.8438,754.6797 277.2344,754.4609 Q276.625,754.2422 276,754.2422 Q275.2344,754.2422 274.5938,754.5703 Q273.9688,754.8984 273.4688,755.6484 Q272.9844,756.3984 272.9844,757.4297 L272.9844,758.5234 Q272.9844,759.7578 273.875,760.5859 Q274.7656,761.3984 276.3594,761.3984 Q277.2969,761.3984 277.9531,761.1484 Q278.3438,760.9922 278.7656,760.5547 Q279.0313,760.2891 279.1719,760.2109 Q279.3281,760.1328 279.5313,760.1328 Q279.8594,760.1328 280.1094,760.3984 Q280.375,760.6484 280.375,760.9922 Q280.375,761.3359 280.0313,761.7422 Q279.5313,762.3203 278.7344,762.6484 Q277.6563,763.1016 276.3594,763.1016 Q274.8438,763.1016 273.6406,762.4766 Q272.6563,761.9766 271.9688,760.9141 Q271.2813,759.8359 271.2813,758.5547 L271.2813,757.3984 Q271.2813,756.0703 271.8906,754.9297 Q272.5156,753.7734 273.6094,753.1641 Q274.7031,752.5391 275.9375,752.5391 Q276.6719,752.5391 277.3125,752.7109 Q277.9688,752.8672 278.5156,753.2266 Z " fill="#000000"/><text fill="#000000" font-family="sans-serif" font-size="12" font-style="italic" lengthAdjust="spacing" textLength="58" x="299.25" y="753.457">&#171;abstract&#187;</text><text fill="#000000" font-family="sans-serif" font-size="14" lengthAdjust="spacing" textLength="64" x="296.25" y="770.627">Colleague</text><line style="stroke:#181818;stroke-width:0.5;" x1="223" x2="401" y1="778.7031" y2="778.7031"/><polygon fill="none" points="233,788.0078,237,792.0078,233,796.0078,229,792.0078" style="stroke:#B38D22;stroke-width:1.0;"/><text fill="#000000" font-family="sans-serif" font-size="14" lengthAdjust="spacing" textLength="122" x="242" y="797.2363">mediator : Mediator</text><line style="stroke:#181818;stroke-width:0.5;" x1="223" x2="401" y1="804.3125" y2="804.3125"/><ellipse cx="233" cy="818.6172" fill="#84BE84" rx="3" ry="3" style="stroke:#038048;stroke-width:1.0;"/><text fill="#000000" font-family="sans-serif" font-size="14" lengthAdjust="spacing" textLength="154" x="242" y="822.8457">receive(String message)</text></g><!--class Dealer--><g id="elem_Dealer"><rect codeLine="35" fill="#F1F1F1" height="100.8281" id="Dealer" rx="2.5" ry="2.5" style="stroke:#181818;stroke-width:0.5;" width="180" x="437" y="575"/><ellipse cx="501.75" cy="591" fill="#ADD1B2" rx="11" ry="11" style="stroke:#181818;stroke-width:1.0;"/><path d="M504.5156,586.875 Q504.6719,586.6563 504.8594,586.5469 Q505.0469,586.4375 505.2656,586.4375 Q505.6406,586.4375 505.875,586.7031 Q506.1094,586.9531 506.1094,587.5625 L506.1094,589.0156 Q506.1094,589.625 505.875,589.8906 Q505.6406,590.1563 505.2656,590.1563 Q504.9219,590.1563 504.7188,589.9531 Q504.5156,589.7656 504.4063,589.25 Q504.3594,588.8906 504.1719,588.7031 Q503.8438,588.3281 503.2344,588.1094 Q502.625,587.8906 502,587.8906 Q501.2344,587.8906 500.5938,588.2188 Q499.9688,588.5469 499.4688,589.2969 Q498.9844,590.0469 498.9844,591.0781 L498.9844,592.1719 Q498.9844,593.4063 499.875,594.2344 Q500.7656,595.0469 502.3594,595.0469 Q503.2969,595.0469 503.9531,594.7969 Q504.3438,594.6406 504.7656,594.2031 Q505.0313,593.9375 505.1719,593.8594 Q505.3281,593.7813 505.5313,593.7813 Q505.8594,593.7813 506.1094,594.0469 Q506.375,594.2969 506.375,594.6406 Q506.375,594.9844 506.0313,595.3906 Q505.5313,595.9688 504.7344,596.2969 Q503.6563,596.75 502.3594,596.75 Q500.8438,596.75 499.6406,596.125 Q498.6563,595.625 497.9688,594.5625 Q497.2813,593.4844 497.2813,592.2031 L497.2813,591.0469 Q497.2813,589.7188 497.8906,588.5781 Q498.5156,587.4219 499.6094,586.8125 Q500.7031,586.1875 501.9375,586.1875 Q502.6719,586.1875 503.3125,586.3594 Q503.9688,586.5156 504.5156,586.875 Z " fill="#000000"/><text fill="#000000" font-family="sans-serif" font-size="14" lengthAdjust="spacing" textLength="42" x="522.25" y="596.7285">Dealer</text><line style="stroke:#181818;stroke-width:0.5;" x1="438" x2="616" y1="607" y2="607"/><polygon fill="none" points="448,616.3047,452,620.3047,448,624.3047,444,620.3047" style="stroke:#B38D22;stroke-width:1.0;"/><text fill="#000000" font-family="sans-serif" font-size="14" lengthAdjust="spacing" textLength="84" x="457" y="625.5332">name : String</text><line style="stroke:#181818;stroke-width:0.5;" x1="438" x2="616" y1="632.6094" y2="632.6094"/><ellipse cx="448" cy="646.9141" fill="#84BE84" rx="3" ry="3" style="stroke:#038048;stroke-width:1.0;"/><text fill="#000000" font-family="sans-serif" font-size="14" lengthAdjust="spacing" textLength="154" x="457" y="651.1426">receive(String message)</text><ellipse cx="448" cy="664.5234" fill="#84BE84" rx="3" ry="3" style="stroke:#038048;stroke-width:1.0;"/><text fill="#000000" font-family="sans-serif" font-size="14" lengthAdjust="spacing" textLength="52" x="457" y="668.752">deliver()</text></g><!--class Packer--><g id="elem_Packer"><rect codeLine="41" fill="#F1F1F1" height="83.2188" id="Packer" rx="2.5" ry="2.5" style="stroke:#181818;stroke-width:0.5;" width="180" x="222" y="584"/><ellipse cx="285.75" cy="600" fill="#ADD1B2" rx="11" ry="11" style="stroke:#181818;stroke-width:1.0;"/><path d="M288.5156,595.875 Q288.6719,595.6563 288.8594,595.5469 Q289.0469,595.4375 289.2656,595.4375 Q289.6406,595.4375 289.875,595.7031 Q290.1094,595.9531 290.1094,596.5625 L290.1094,598.0156 Q290.1094,598.625 289.875,598.8906 Q289.6406,599.1563 289.2656,599.1563 Q288.9219,599.1563 288.7188,598.9531 Q288.5156,598.7656 288.4063,598.25 Q288.3594,597.8906 288.1719,597.7031 Q287.8438,597.3281 287.2344,597.1094 Q286.625,596.8906 286,596.8906 Q285.2344,596.8906 284.5938,597.2188 Q283.9688,597.5469 283.4688,598.2969 Q282.9844,599.0469 282.9844,600.0781 L282.9844,601.1719 Q282.9844,602.4063 283.875,603.2344 Q284.7656,604.0469 286.3594,604.0469 Q287.2969,604.0469 287.9531,603.7969 Q288.3438,603.6406 288.7656,603.2031 Q289.0313,602.9375 289.1719,602.8594 Q289.3281,602.7813 289.5313,602.7813 Q289.8594,602.7813 290.1094,603.0469 Q290.375,603.2969 290.375,603.6406 Q290.375,603.9844 290.0313,604.3906 Q289.5313,604.9688 288.7344,605.2969 Q287.6563,605.75 286.3594,605.75 Q284.8438,605.75 283.6406,605.125 Q282.6563,604.625 281.9688,603.5625 Q281.2813,602.4844 281.2813,601.2031 L281.2813,600.0469 Q281.2813,598.7188 281.8906,597.5781 Q282.5156,596.4219 283.6094,595.8125 Q284.7031,595.1875 285.9375,595.1875 Q286.6719,595.1875 287.3125,595.3594 Q287.9688,595.5156 288.5156,595.875 Z " fill="#000000"/><text fill="#000000" font-family="sans-serif" font-size="14" lengthAdjust="spacing" textLength="44" x="306.25" y="605.7285">Packer</text><line style="stroke:#181818;stroke-width:0.5;" x1="223" x2="401" y1="616" y2="616"/><line style="stroke:#181818;stroke-width:0.5;" x1="223" x2="401" y1="624" y2="624"/><ellipse cx="233" cy="638.3047" fill="#84BE84" rx="3" ry="3" style="stroke:#038048;stroke-width:1.0;"/><text fill="#000000" font-family="sans-serif" font-size="14" lengthAdjust="spacing" textLength="154" x="242" y="642.5332">receive(String message)</text><ellipse cx="233" cy="655.9141" fill="#84BE84" rx="3" ry="3" style="stroke:#038048;stroke-width:1.0;"/><text fill="#000000" font-family="sans-serif" font-size="14" lengthAdjust="spacing" textLength="40" x="242" y="660.1426">pack()</text></g><!--class Storer--><g id="elem_Storer"><rect codeLine="46" fill="#F1F1F1" height="83.2188" id="Storer" rx="2.5" ry="2.5" style="stroke:#181818;stroke-width:0.5;" width="180" x="7" y="584"/><ellipse cx="73.25" cy="600" fill="#ADD1B2" rx="11" ry="11" style="stroke:#181818;stroke-width:1.0;"/><path d="M76.0156,595.875 Q76.1719,595.6563 76.3594,595.5469 Q76.5469,595.4375 76.7656,595.4375 Q77.1406,595.4375 77.375,595.7031 Q77.6094,595.9531 77.6094,596.5625 L77.6094,598.0156 Q77.6094,598.625 77.375,598.8906 Q77.1406,599.1563 76.7656,599.1563 Q76.4219,599.1563 76.2188,598.9531 Q76.0156,598.7656 75.9063,598.25 Q75.8594,597.8906 75.6719,597.7031 Q75.3438,597.3281 74.7344,597.1094 Q74.125,596.8906 73.5,596.8906 Q72.7344,596.8906 72.0938,597.2188 Q71.4688,597.5469 70.9688,598.2969 Q70.4844,599.0469 70.4844,600.0781 L70.4844,601.1719 Q70.4844,602.4063 71.375,603.2344 Q72.2656,604.0469 73.8594,604.0469 Q74.7969,604.0469 75.4531,603.7969 Q75.8438,603.6406 76.2656,603.2031 Q76.5313,602.9375 76.6719,602.8594 Q76.8281,602.7813 77.0313,602.7813 Q77.3594,602.7813 77.6094,603.0469 Q77.875,603.2969 77.875,603.6406 Q77.875,603.9844 77.5313,604.3906 Q77.0313,604.9688 76.2344,605.2969 Q75.1563,605.75 73.8594,605.75 Q72.3438,605.75 71.1406,605.125 Q70.1563,604.625 69.4688,603.5625 Q68.7813,602.4844 68.7813,601.2031 L68.7813,600.0469 Q68.7813,598.7188 69.3906,597.5781 Q70.0156,596.4219 71.1094,595.8125 Q72.2031,595.1875 73.4375,595.1875 Q74.1719,595.1875 74.8125,595.3594 Q75.4688,595.5156 76.0156,595.875 Z " fill="#000000"/><text fill="#000000" font-family="sans-serif" font-size="14" lengthAdjust="spacing" textLength="39" x="93.75" y="605.7285">Storer</text><line style="stroke:#181818;stroke-width:0.5;" x1="8" x2="186" y1="616" y2="616"/><line style="stroke:#181818;stroke-width:0.5;" x1="8" x2="186" y1="624" y2="624"/><ellipse cx="18" cy="638.3047" fill="#84BE84" rx="3" ry="3" style="stroke:#038048;stroke-width:1.0;"/><text fill="#000000" font-family="sans-serif" font-size="14" lengthAdjust="spacing" textLength="154" x="27" y="642.5332">receive(String message)</text><ellipse cx="18" cy="655.9141" fill="#84BE84" rx="3" ry="3" style="stroke:#038048;stroke-width:1.0;"/><text fill="#000000" font-family="sans-serif" font-size="14" lengthAdjust="spacing" textLength="42" x="27" y="660.1426">store()</text></g><!--class Mediator--><g id="elem_Mediator"><rect codeLine="51" fill="#F1F1F1" height="188.875" id="Mediator" rx="2.5" ry="2.5" style="stroke:#181818;stroke-width:0.5;" width="210" x="209" y="7"/><ellipse cx="281.75" cy="23" fill="#B4A7E5" rx="11" ry="11" style="stroke:#181818;stroke-width:1.0;"/><path d="M282.7031,19.6406 L282.7031,26.2969 L284.4219,26.2969 Q285.0313,26.2969 285.2969,26.5313 Q285.5625,26.7656 285.5625,27.1563 Q285.5625,27.5313 285.2969,27.7656 Q285.0313,28 284.4219,28 L279.2813,28 Q278.6719,28 278.4063,27.7656 Q278.1406,27.5313 278.1406,27.1406 Q278.1406,26.7656 278.4063,26.5313 Q278.6719,26.2969 279.2813,26.2969 L281,26.2969 L281,19.6406 L279.2813,19.6406 Q278.6719,19.6406 278.4063,19.4063 Q278.1406,19.1719 278.1406,18.7813 Q278.1406,18.4063 278.4063,18.1719 Q278.6719,17.9375 279.2813,17.9375 L284.4219,17.9375 Q285.0313,17.9375 285.2969,18.1719 Q285.5625,18.4063 285.5625,18.7813 Q285.5625,19.1719 285.2969,19.4063 Q285.0313,19.6406 284.4219,19.6406 L282.7031,19.6406 Z " fill="#000000"/><text fill="#000000" font-family="sans-serif" font-size="14" font-style="italic" lengthAdjust="spacing" textLength="56" x="302.25" y="28.7285">Mediator</text><line style="stroke:#181818;stroke-width:0.5;" x1="210" x2="418" y1="39" y2="39"/><line style="stroke:#181818;stroke-width:0.5;" x1="210" x2="418" y1="47" y2="47"/><ellipse cx="220" cy="61.3047" fill="#84BE84" rx="3" ry="3" style="stroke:#038048;stroke-width:1.0;"/><text fill="#000000" font-family="sans-serif" font-size="14" lengthAdjust="spacing" textLength="173" x="229" y="65.5332">notify(Colleague colleague)</text><ellipse cx="220" cy="78.9141" fill="#84BE84" rx="3" ry="3" style="stroke:#038048;stroke-width:1.0;"/><text fill="#000000" font-family="sans-serif" font-size="14" lengthAdjust="spacing" textLength="93" x="229" y="83.1426">startShipping()</text><ellipse cx="220" cy="96.5234" fill="#84BE84" rx="3" ry="3" style="stroke:#038048;stroke-width:1.0;"/><text fill="#000000" font-family="sans-serif" font-size="14" lengthAdjust="spacing" textLength="95" x="229" y="100.752">savePackage()</text><ellipse cx="220" cy="114.1328" fill="#84BE84" rx="3" ry="3" style="stroke:#038048;stroke-width:1.0;"/><text fill="#000000" font-family="sans-serif" font-size="14" lengthAdjust="spacing" textLength="104" x="229" y="118.3613">startPackaging()</text><ellipse cx="220" cy="131.7422" fill="#84BE84" rx="3" ry="3" style="stroke:#038048;stroke-width:1.0;"/><text fill="#000000" font-family="sans-serif" font-size="14" lengthAdjust="spacing" textLength="96" x="229" y="135.9707">sendPackage()</text><ellipse cx="220" cy="149.3516" fill="#84BE84" rx="3" ry="3" style="stroke:#038048;stroke-width:1.0;"/><text fill="#000000" font-family="sans-serif" font-size="14" lengthAdjust="spacing" textLength="179" x="229" y="153.5801">setDealer(Colleague dealer)</text><ellipse cx="220" cy="166.9609" fill="#84BE84" rx="3" ry="3" style="stroke:#038048;stroke-width:1.0;"/><text fill="#000000" font-family="sans-serif" font-size="14" lengthAdjust="spacing" textLength="184" x="229" y="171.1895">setPacker(Colleague packer)</text><ellipse cx="220" cy="184.5703" fill="#84BE84" rx="3" ry="3" style="stroke:#038048;stroke-width:1.0;"/><text fill="#000000" font-family="sans-serif" font-size="14" lengthAdjust="spacing" textLength="173" x="229" y="188.7988">setStorer(Colleague storer)</text></g><!--class DispatchHandler--><g id="elem_DispatchHandler"><rect codeLine="63" fill="#F1F1F1" height="259.3125" id="DispatchHandler" rx="2.5" ry="2.5" style="stroke:#181818;stroke-width:0.5;" width="210" x="208" y="256"/><ellipse cx="256.75" cy="272" fill="#ADD1B2" rx="11" ry="11" style="stroke:#181818;stroke-width:1.0;"/><path d="M259.5156,267.875 Q259.6719,267.6563 259.8594,267.5469 Q260.0469,267.4375 260.2656,267.4375 Q260.6406,267.4375 260.875,267.7031 Q261.1094,267.9531 261.1094,268.5625 L261.1094,270.0156 Q261.1094,270.625 260.875,270.8906 Q260.6406,271.1563 260.2656,271.1563 Q259.9219,271.1563 259.7188,270.9531 Q259.5156,270.7656 259.4063,270.25 Q259.3594,269.8906 259.1719,269.7031 Q258.8438,269.3281 258.2344,269.1094 Q257.625,268.8906 257,268.8906 Q256.2344,268.8906 255.5938,269.2188 Q254.9688,269.5469 254.4688,270.2969 Q253.9844,271.0469 253.9844,272.0781 L253.9844,273.1719 Q253.9844,274.4063 254.875,275.2344 Q255.7656,276.0469 257.3594,276.0469 Q258.2969,276.0469 258.9531,275.7969 Q259.3438,275.6406 259.7656,275.2031 Q260.0313,274.9375 260.1719,274.8594 Q260.3281,274.7813 260.5313,274.7813 Q260.8594,274.7813 261.1094,275.0469 Q261.375,275.2969 261.375,275.6406 Q261.375,275.9844 261.0313,276.3906 Q260.5313,276.9688 259.7344,277.2969 Q258.6563,277.75 257.3594,277.75 Q255.8438,277.75 254.6406,277.125 Q253.6563,276.625 252.9688,275.5625 Q252.2813,274.4844 252.2813,273.2031 L252.2813,272.0469 Q252.2813,270.7188 252.8906,269.5781 Q253.5156,268.4219 254.6094,267.8125 Q255.7031,267.1875 256.9375,267.1875 Q257.6719,267.1875 258.3125,267.3594 Q258.9688,267.5156 259.5156,267.875 Z " fill="#000000"/><text fill="#000000" font-family="sans-serif" font-size="14" lengthAdjust="spacing" textLength="104" x="277.25" y="277.7285">DispatchHandler</text><line style="stroke:#181818;stroke-width:0.5;" x1="209" x2="417" y1="288" y2="288"/><rect fill="none" height="6" style="stroke:#C82930;stroke-width:1.0;" width="6" x="216" y="299.3047"/><text fill="#000000" font-family="sans-serif" font-size="14" lengthAdjust="spacing" textLength="86" x="228" y="306.5332">Dealer dealer</text><rect fill="none" height="6" style="stroke:#C82930;stroke-width:1.0;" width="6" x="216" y="316.9141"/><text fill="#000000" font-family="sans-serif" font-size="14" lengthAdjust="spacing" textLength="91" x="228" y="324.1426">Packer packer</text><rect fill="none" height="6" style="stroke:#C82930;stroke-width:1.0;" width="6" x="216" y="334.5234"/><text fill="#000000" font-family="sans-serif" font-size="14" lengthAdjust="spacing" textLength="80" x="228" y="341.752">Storer storer</text><line style="stroke:#181818;stroke-width:0.5;" x1="209" x2="417" y1="348.8281" y2="348.8281"/><ellipse cx="219" cy="363.1328" fill="#84BE84" rx="3" ry="3" style="stroke:#038048;stroke-width:1.0;"/><text fill="#000000" font-family="sans-serif" font-size="14" lengthAdjust="spacing" textLength="173" x="228" y="367.3613">notify(Colleague colleague)</text><ellipse cx="219" cy="380.7422" fill="#84BE84" rx="3" ry="3" style="stroke:#038048;stroke-width:1.0;"/><text fill="#000000" font-family="sans-serif" font-size="14" lengthAdjust="spacing" textLength="93" x="228" y="384.9707">startShipping()</text><ellipse cx="219" cy="398.3516" fill="#84BE84" rx="3" ry="3" style="stroke:#038048;stroke-width:1.0;"/><text fill="#000000" font-family="sans-serif" font-size="14" lengthAdjust="spacing" textLength="95" x="228" y="402.5801">savePackage()</text><ellipse cx="219" cy="415.9609" fill="#84BE84" rx="3" ry="3" style="stroke:#038048;stroke-width:1.0;"/><text fill="#000000" font-family="sans-serif" font-size="14" lengthAdjust="spacing" textLength="104" x="228" y="420.1895">startPackaging()</text><ellipse cx="219" cy="433.5703" fill="#84BE84" rx="3" ry="3" style="stroke:#038048;stroke-width:1.0;"/><text fill="#000000" font-family="sans-serif" font-size="14" lengthAdjust="spacing" textLength="96" x="228" y="437.7988">sendPackage()</text><ellipse cx="219" cy="451.1797" fill="#84BE84" rx="3" ry="3" style="stroke:#038048;stroke-width:1.0;"/><text fill="#000000" font-family="sans-serif" font-size="14" lengthAdjust="spacing" textLength="179" x="228" y="455.4082">setDealer(Colleague dealer)</text><ellipse cx="219" cy="468.7891" fill="#84BE84" rx="3" ry="3" style="stroke:#038048;stroke-width:1.0;"/><text fill="#000000" font-family="sans-serif" font-size="14" lengthAdjust="spacing" textLength="184" x="228" y="473.0176">setPacker(Colleague packer)</text><ellipse cx="219" cy="486.3984" fill="#84BE84" rx="3" ry="3" style="stroke:#038048;stroke-width:1.0;"/><text fill="#000000" font-family="sans-serif" font-size="14" lengthAdjust="spacing" textLength="173" x="228" y="490.627">setStorer(Colleague storer)</text><rect fill="#F24D5C" height="6" style="stroke:#C82930;stroke-width:1.0;" width="6" x="216" y="501.0078"/><text fill="#000000" font-family="sans-serif" font-size="14" lengthAdjust="spacing" textLength="67" x="228" y="508.2363">_notifyAll()</text></g><!--link BasicDelivery to Delivery--><g id="link_BasicDelivery_Delivery"><path codeLine="78" d="M633.61,101.5 C645.43,101.5 639.26,101.5 651.08,101.5 " fill="none" id="BasicDelivery-to-Delivery" style="stroke:#181818;stroke-width:1.0;stroke-dasharray:7.0,7.0;"/><polygon fill="none" points="669.08,101.5,651.08,95.5,651.08,107.5,669.08,101.5" style="stroke:#181818;stroke-width:1.0;"/></g><!--reverse link Delivery to DecoratorDelivery--><g id="link_Delivery_DecoratorDelivery"><path codeLine="79" d="M747.1709,161.1332 C742.9409,210.1032 744.13,274.58 747.63,329.26 " fill="none" id="Delivery-backto-DecoratorDelivery" style="stroke:#181818;stroke-width:1.0;stroke-dasharray:7.0,7.0;"/><polygon fill="none" points="748.72,143.2,741.1932,160.6169,753.1487,161.6496,748.72,143.2" style="stroke:#181818;stroke-width:1.0;"/></g><!--link DecoratorDelivery to Delivery--><g id="link_DecoratorDelivery_Delivery"><path codeLine="80" d="M769.7923,317.2875 C773.5023,262.6075 772.8566,198.145 768.3766,149.175 " fill="none" id="DecoratorDelivery-Delivery" style="stroke:#181818;stroke-width:1.0;"/><polygon fill="none" points="768.98,329.26,773.377,323.5445,769.7923,317.2875,765.3953,323.003,768.98,329.26" style="stroke:#181818;stroke-width:1.0;"/><polygon fill="#181818" points="767.83,143.2,764.6666,152.527,768.2855,148.1792,772.6333,151.7982,767.83,143.2" style="stroke:#181818;stroke-width:1.0;"/></g><!--reverse link DecoratorDelivery to BasicFastDeliveryWithRoute--><g id="link_DecoratorDelivery_BasicFastDeliveryWithRoute"><path codeLine="81" d="M758,459.7 C758,499.93 758,535.98 758,574.86 " fill="none" id="DecoratorDelivery-backto-BasicFastDeliveryWithRoute" style="stroke:#181818;stroke-width:1.0;"/><polygon fill="none" points="758,441.7,752,459.7,764,459.7,758,441.7" style="stroke:#181818;stroke-width:1.0;"/></g><!--reverse link DecoratorDelivery to BasicProtectedDelivery--><g id="link_DecoratorDelivery_BasicProtectedDelivery"><path codeLine="82" d="M823.8498,454.6423 C865.7898,498.0323 910.74,544.56 948.59,583.72 " fill="none" id="DecoratorDelivery-backto-BasicProtectedDelivery" style="stroke:#181818;stroke-width:1.0;"/><polygon fill="none" points="811.34,441.7,819.5357,458.8123,828.1639,450.4724,811.34,441.7" style="stroke:#181818;stroke-width:1.0;"/></g><!--reverse link Mediator to DispatchHandler--><g id="link_Mediator_DispatchHandler"><path codeLine="85" d="M313.6042,214.0099 C313.5342,233.1699 313.53,235.65 313.46,255.8 " fill="none" id="Mediator-backto-DispatchHandler" style="stroke:#181818;stroke-width:1.0;stroke-dasharray:7.0,7.0;"/><polygon fill="none" points="313.67,196.01,307.6043,213.988,319.6042,214.0318,313.67,196.01" style="stroke:#181818;stroke-width:1.0;"/></g><!--link Dealer to Colleague--><g id="link_Dealer_Colleague"><path codeLine="86" d="M458.38,676.13 C431.96,695.24 416.5059,706.4224 390.5359,725.2024 " fill="none" id="Dealer-to-Colleague" style="stroke:#181818;stroke-width:1.0;"/><polygon fill="none" points="375.95,735.75,394.0517,730.0643,387.02,720.3404,375.95,735.75" style="stroke:#181818;stroke-width:1.0;"/></g><!--link Packer to Colleague--><g id="link_Packer_Colleague"><path codeLine="87" d="M312,667.36 C312,688.41 312,696.17 312,717.93 " fill="none" id="Packer-to-Colleague" style="stroke:#181818;stroke-width:1.0;"/><polygon fill="none" points="312,735.93,318,717.93,306,717.93,312,735.93" style="stroke:#181818;stroke-width:1.0;"/></g><!--link Storer to Colleague--><g id="link_Storer_Colleague"><path codeLine="88" d="M153.21,667.15 C182.32,688.21 203.4058,703.46 233.5558,725.27 " fill="none" id="Storer-to-Colleague" style="stroke:#181818;stroke-width:1.0;"/><polygon fill="none" points="248.14,735.82,237.0725,720.4087,230.0392,730.1314,248.14,735.82" style="stroke:#181818;stroke-width:1.0;"/></g><!--link DispatchHandler to Dealer--><g id="link_DispatchHandler_Dealer"><path codeLine="90" d="M418.12,503.41 C440.74,528.57 459.4574,549.3892 478.2574,570.2892 " fill="none" id="DispatchHandler-to-Dealer" style="stroke:#181818;stroke-width:1.0;stroke-dasharray:7.0,7.0;"/><polygon fill="#181818" points="482.27,574.75,479.225,565.3837,478.9262,571.0326,473.2772,570.7338,482.27,574.75" style="stroke:#181818;stroke-width:1.0;"/></g><!--link DispatchHandler to Packer--><g id="link_DispatchHandler_Packer"><path codeLine="91" d="M312.46,515.25 C312.35,540.11 312.2748,558.4101 312.1948,577.7401 " fill="none" id="DispatchHandler-to-Packer" style="stroke:#181818;stroke-width:1.0;stroke-dasharray:7.0,7.0;"/><polygon fill="#181818" points="312.17,583.74,316.2072,574.7566,312.1907,578.74,308.2073,574.7235,312.17,583.74" style="stroke:#181818;stroke-width:1.0;"/></g><!--link DispatchHandler to Storer--><g id="link_DispatchHandler_Storer"><path codeLine="92" d="M207.85,502.36 C181.24,531.68 158.4321,556.8068 137.8321,579.5068 " fill="none" id="DispatchHandler-to-Storer" style="stroke:#181818;stroke-width:1.0;stroke-dasharray:7.0,7.0;"/><polygon fill="#181818" points="133.8,583.95,142.8103,579.9733,137.1601,580.2473,136.8861,574.5971,133.8,583.95" style="stroke:#181818;stroke-width:1.0;"/></g><!--reverse link Mediator to BasicDelivery--><g id="link_Mediator_BasicDelivery"><path codeLine="94" d="M425.12,101.5 C437.58,101.5 444.04,101.5 456.49,101.5 " fill="none" id="Mediator-backto-BasicDelivery" style="stroke:#181818;stroke-width:1.0;"/><polygon fill="#181818" points="419.12,101.5,428.12,105.5,424.12,101.5,428.12,97.5,419.12,101.5" style="stroke:#181818;stroke-width:1.0;"/></g><!--SRC=[tLN1JiCm3BtdAo9nwOJQ3vYcIJ24k20XTk28lDJR8hAcIZoaYV7lP4tIfYjiIEn4Jwtz_5xyOhb2WRNy5gmKTwZaEveT_s3SFLTyWwK4qeQF-MDuRJBNlFJGR4v6LgluEGhP5LPeW72cBMKZLrtgxK8X-sHCLeHc2GBvaTeVE4NJmXqARGv7R8ad4muBImO4yUaqDXLuTotUSSMIeFKHopxF72e1dZrVO_4zM8fYBvBMptfB61p8kMc-njoBNSQMHlR9Q491M5xQz9bM2c6rHMTszAAp-kVvCIZG2KNP3LeBAnobjmaAJJk95Mm6nlp4qMyiuNm2yTPodgkl7JWjdhl3_xhO7i2-kXluQ47BKMcIortMUIZYMyS3XkPhMTTE96kZy8w7NfnWraFwO0-ALJc08dbt4-Mo2IG8xrM2g9j0Wl2698YcQOT8Bb7Q6aYi7w0gkzlCu-LwqH0Bb-DbGYnuxed_jsc-uLVVtOrIVdYwLROl52wfw2_gNhuORa0st8awpwVyH7wop_CJg-fanM3BCCRQeVSdx0y4IzR7Fj_MSJA6SU_iCExzT4OTJLfHJ2FNTwb0zrqgClR_YFd1VUTSkyQ-0000]--></g></svg>